<svg xmlns="http://www.w3.org/2000/svg" width="1024" height="1024"><path fill="#10151C" d="M0 0h1024v1024H0z"/><path fill="#2A3D51" d="m618.813 250.438 2.507.071c18.575.752 39.087 4.27 53.68 16.491l2.434 1.824c13.474 11.423 20.848 28.76 27.605 44.649 2.896 6.768 6.037 13.429 9.142 20.103 2.503 5.416 4.781 10.818 6.819 16.424q1.43 3.502 2.875 7c5.328 13.223 8.9 26.557 11.641 40.534q.73 3.709 1.48 7.415 1.005 4.98 1.988 9.965c.698 3.52 1.42 7.035 2.157 10.547l.562 2.715q.53 2.559 1.078 5.115l.485 2.354.43 2.042c.409 3.113.349 6.178.304 9.313q-11.014.01-22.028.002h-7.928c-7.53.002-15.06-.018-22.589-.082-3.545-.03-7.089-.047-10.634-.04-3.519.007-7.037-.016-10.555-.059a373 373 0 0 0-5.816.011c-7.712-.126-13.113-1.534-19.838-5.352-2.489-1.41-4.942-2.467-7.612-3.48a157 157 0 0 1-3.75-1.875c-7.418-3.723-14.287-6.577-22.453-8.316-2.984-.863-5.187-2.15-7.797-3.809-2.191-.696-2.191-.696-4-1 .658-4.343 2.222-8 4-12 1.963-5.888 1.775-11.889-.625-17.625A94 94 0 0 0 600 389l-1.25-2.164c-4.9-7.434-12.415-10.43-20.75-12.836-7.603-.811-14.817-.912-21 4-5.645 5.39-10.56 10.79-11.398 18.805q-.018 2.034.023 4.07l.018 2.14c.132 5.329 1.11 9.21 3.357 13.985v3q-8.944.037-17.89.055-3.045.008-6.09.02c-2.912.013-5.823.018-8.735.023l-2.768.015c-2.173 0-4.345-.05-6.517-.113l-1-1c-2.247-.1-4.497-.13-6.746-.133l-2.076-.003q-2.188 0-4.376.006-3.298.005-6.597-.007c-7.46-.003-14.79.217-22.205 1.137a174 174 0 0 1 2.063-7.625c1.954-7.98 1.698-15.974-2.063-23.375-3.97-5.913-8.426-9.396-15-12l-2.191-1.078c-3.902-1.28-7.54-1.29-11.622-1.297l-2.33-.074c-6.98-.036-11.989 1.992-17.283 6.527-7.586 8.733-9.302 15.552-8.945 27.055.413 4.305 1.38 7.429 3.496 11.168C411 421 411 421 411 424h-2v2l-1.652.516C395.905 430.193 385.064 434.99 376 443c-5.418 4.597-11.39 4.184-18.187 4.316l-2.774.064q-4.52.097-9.039.183c-1.028.02-2.056.042-3.115.064-22.628.462-45.253.48-67.885.373-.053-3.898-.058-7.597.7-11.426l.468-2.386.52-2.5.536-2.64c1.397-6.669 3.105-13.217 4.996-19.762 1.19-4.118 2.227-8.21 3.092-12.411 1.89-8.517 4.888-16.708 7.692-24.957 2.08-6.126 4.01-12.29 5.89-18.48 2.56-7.96 5.785-15.655 8.981-23.375l1.277-3.131c2.296-5.543 4.789-10.783 7.78-15.981 1.401-2.56 2.335-5.186 3.255-7.951 6.943-18.565 18.769-35.208 37.004-43.84 10.203-4.214 20.678-6.14 31.618-6.98q2.2-.181 4.394-.434c6.812-.773 12.873-1.409 18.719 2.676 3.285 2.625 6.206 5.51 9.078 8.578 2.16 2.16 7.21 1.187 10.211 1.205l2.949.03q4.892.046 9.785.081l6.887.064c7.431.068 14.862.126 22.293.183l7.581.06q18.774.147 37.548.277 13.827.095 27.652.233 9.12.09 18.238.142 4.952.026 9.905.084c3.549.041 7.097.057 10.646.067l3.055.053c5.312.086 5.312.086 9.769-2.506L599 261h2l.808-1.8c3.848-7.103 9.291-9.15 17.005-8.762"/><path fill="#10151C" d="M519 160q2.531.528 5.065 1.034c42.02 8.639 42.02 8.639 60.06 12.841l3.413.792c6.699 1.587 13.305 3.411 19.917 5.329 4.669 1.322 9.367 2.508 14.073 3.692a970 970 0 0 1 38.597 10.562l2.133.631c4.585 1.36 9.164 2.737 13.742 4.119l3.34.997c8.416 2.54 16.698 5.415 24.972 8.378l4.156 1.484Q714.237 211.923 720 214l2.643.947A427 427 0 0 1 736 220l2.103.83c18.845 7.52 36.824 16.989 54.897 26.17.257 56.027.17 111.6-9 167l-.502 3.075c-2.186 13.301-2.186 13.301-3.498 15.925h-3l-.503-2.272-2.31-10.416-.79-3.572a2157 2157 0 0 0-4.649-20.504 1382 1382 0 0 1-1.494-6.537c-5.867-25.915-13.752-50.367-24.83-74.553-1.971-4.354-3.86-8.741-5.756-13.128-6.69-15.422-13.883-28.956-24.264-42.219a383 383 0 0 1-3.638-4.756C692.506 233.872 667.724 224.011 642 220c-18.415-2.4-38.213-3.378-54 8l-1.751 2.549c-3.658 3.645-8.262 3.078-13.144 3.14l-4.087-.026q-2.161.012-4.323.031c-3.907.027-7.814.023-11.72.01-3.264-.007-6.527.002-9.79.01a4231 4231 0 0 1-23.093-.007c-7.94-.023-15.878-.005-23.818.033q-10.23.046-20.46.028c-4.071-.007-8.142-.005-12.214.02a852 852 0 0 1-11.485-.018 279 279 0 0 0-4.212.013c-10.653.103-10.653.103-13.778-2.113-1.331-1.617-1.331-1.617-3.125-4.67-2.628-1.665-2.628-1.665-5.437-2.75l-2.918-1.219c-23.724-9.251-55.262-3.602-78.157 6.352-33.356 15.464-49.62 47.4-62.925 79.992l-1.954 4.744c-8.991 21.926-16.875 44.07-23.676 66.77q-1.183 3.941-2.394 7.873c-2.858 9.383-5.253 18.866-7.573 28.395l-.732 2.995-.649 2.688C244 425 244 425 243 427c-1.899-.685-1.899-.685-4-2-3.906-8.866-4.088-19.738-5.062-29.312-.085-.801-.17-1.602-.256-2.427-1.565-14.869-2.647-29.74-3.466-44.669-.197-3.276-.45-6.542-.715-9.813-.98-13.667-.949-27.387-1.05-41.084-.035-4.85-.09-9.7-.185-14.55-.093-4.73-.141-9.459-.159-14.19a305 305 0 0 0-.09-5.377c-.337-13.923-.337-13.923 2.871-17.946 2.324-1.59 4.482-2.646 7.112-3.632l2.759-1.52 2.292-1.078 2.596-1.23 2.666-1.234 2.81-1.32a340 340 0 0 1 16.924-7.368c2.85-1.206 5.626-2.527 8.408-3.883 19.767-9.591 40.48-17.176 61.545-23.367l3.41-1.004c12.171-3.565 24.35-7.024 36.68-10.004 5.663-1.401 11.257-3.064 16.853-4.711 7.265-2.119 14.596-3.947 21.942-5.758 3.468-.857 6.932-1.726 10.396-2.593l4.11-1.028 2.048-.512 2.061-.515 2.104-.526 4.174-1.044 2.003-.5L451 171l3.814-.982c4.763-1.19 9.568-2.15 14.381-3.112l5.856-1.183q4.567-.92 9.137-1.837 4.442-.892 8.882-1.792l2.747-.547c3.569-.724 6.81-1.39 10.179-2.803 4.597-1.139 8.473.153 13.004 1.256"/><path fill="#FB9730" d="m526.938 139.313 3.052.646c4.878 1.05 9.694 2.208 14.494 3.568 5.882 1.639 11.817 2.685 17.828 3.723 19.586 3.516 38.984 7.925 58.074 13.553 6.376 1.874 12.787 3.54 19.239 5.135l3.05.76q7.694 1.914 15.407 3.743c20.286 4.917 39.864 11.794 59.534 18.722q3.576 1.254 7.158 2.494l4.527 1.577 2.046.706c5.657 1.98 11.036 4.399 16.419 7.029 5.145 2.485 10.348 4.846 15.547 7.219q3.097 1.418 6.195 2.84 6.676 3.057 13.36 6.1l6.82 3.122 3.143 1.427c5.451 2.5 10.778 5.146 16.051 8.006l3.49 1.888L815 233c.196 73.43.196 73.43-.437 95.813l-.06 2.237c-.312 11.273-.312 11.273-1.503 15.95a132 132 0 0 0-.29 5.23c-.784 16.813-2.72 33.306-5.148 49.957l-.458 3.146c-1.009 6.893-2.05 13.78-3.104 20.667l-.432 2.85a3228 3228 0 0 1-1.228 8.013l-.367 2.418c-.858 5.488-.858 5.488-1.973 7.719-10.832 3.046-23.828 2.157-35 2a45.4 45.4 0 0 1-3.078-10.262l-.57-3.098-.602-3.327c-2.535-13.537-5.51-26.93-8.75-40.313l-.886-3.725c-6.212-25.953-15.082-50.386-25.993-74.752a476 476 0 0 1-3.058-7.05c-6.038-14.188-13.19-26.49-22.663-38.626-1.356-1.789-2.612-3.621-3.869-5.48-12.213-17.193-34.718-23.12-54.183-27.117-11.758-1.976-28.414-4.14-39.348 1.75a56.4 56.4 0 0 0-6.016 5.086L594 244l-2.19 2.581c-5.207 4.26-12.396 3.099-18.76 3.038q-2.3.005-4.6.016c-4.155.013-8.31-.006-12.465-.034-3.474-.02-6.948-.027-10.422-.034-8.2-.017-16.4-.062-24.599-.123-8.446-.062-16.89-.073-25.336-.058q-10.894.013-21.787-.067c-4.333-.03-8.664-.047-12.997-.03-4.078.016-8.153-.012-12.23-.073a210 210 0 0 0-4.474.002c-11.308.113-11.308.113-15.886-3.213-2.357-2.423-2.357-2.423-4.27-4.834-5.279-5.775-14.753-6.905-22.218-7.374-25.085-.335-53.778 5.833-72.45 23.417C323.5 262.92 319.015 268.886 315 276q-1.034 1.737-2.07 3.473c-10.404 17.639-17.832 36.511-25.118 55.59l-1.017 2.658c-6.537 17.123-12.664 34.398-17.483 52.092l-.814 2.92c-4.243 15.349-7.786 30.827-11.149 46.388q-.767 3.54-1.544 7.078l-.461 2.156c-.817 3.712-1.81 7.165-3.344 10.645l-1.816-.546a2769 2769 0 0 0-13.5-4.024l-5.246-1.555-2.729-.8-2.588-.77-2.33-.688C222 450 222 450 221 449a78 78 0 0 1-.8-4.259l-.456-2.76-.486-3.032-.512-3.157q-.54-3.344-1.075-6.692c-.529-3.306-1.07-6.61-1.612-9.914-7.725-47.713-9.292-96.101-9.807-144.363a825 825 0 0 0-.179-10.239c-.093-4.04-.135-8.077-.14-12.118q-.015-2.238-.082-4.477c-.323-11.348-.323-11.348 3.31-15.398 2.544-1.812 5.032-3.233 7.839-4.591q1.976-1.159 3.938-2.344A295 295 0 0 1 225 223.5l2.361-1.235c45.68-23.331 94.219-40.208 143.785-52.962 7.617-1.962 15.206-4.02 22.793-6.097l6.37-1.74 2.126-.58 4.259-1.163q5.164-1.409 10.326-2.827c14.48-3.978 28.93-7.67 43.66-10.603 8.342-1.674 16.628-3.6 24.918-5.513q2.89-.666 5.78-1.327l3.362-.776c11.338-2.354 20.958-1.865 32.197.636m-25.083 20.472c-7.752 1.99-15.543 3.655-23.39 5.222-26.374 5.278-52.536 11.568-78.363 19.098-8.315 2.399-16.69 4.557-25.102 6.583-32.413 7.983-64.265 18.272-94.749 31.875a761 761 0 0 1-10.33 4.453c-6.293 2.69-12.498 5.53-18.671 8.484l-2.879 1.355C238.03 241.426 238.03 241.426 229 248a160 160 0 0 0-.145 7.177l-.01 2.283q-.013 3.781-.013 7.563l-.01 5.327q-.009 5.633-.007 11.264 0 5.67-.02 11.34c-.111 30.575.616 60.99 3.9 91.415.25 2.327.484 4.654.717 6.983.79 7.696 1.762 15.35 3.03 22.984l.332 2.116c.715 4.07 1.72 7.233 4.226 10.548h2c4.153-14.184 4.153-14.184 7.813-28.5 12.607-51.315 34.17-132.704 81.625-162.75C342.6 229.766 352.584 225.943 364 223l2.258-.621C386.769 217.19 409.84 216.35 429 226c2.916 1.936 5.404 3.807 7 7q28.542.248 57.085.363c8.836.036 17.67.085 26.506.165q11.554.106 23.108.13c4.078.01 8.154.031 12.231.082 3.842.048 7.682.062 11.524.052q2.109.002 4.218.042c9.239.218 9.239.218 16.99-4.243l1.722-1.868c2.719-2.9 5.965-4.286 9.616-5.723l2.176-.906c13.995-4.822 31.528-2.736 45.824-.094l2.123.375c26.56 4.791 48.678 17.749 64.575 39.82q1.321 1.83 2.666 3.645c7.737 10.45 13.387 21.292 18.636 33.16q.99 2.183 1.984 4.363A858 858 0 0 1 743 316l1.192 2.738C754.696 342.975 762.138 367.254 768 393l1.5 6.469c1.601 6.94 3.148 13.89 4.688 20.844l.826 3.724L777 433h3c2.374-9.575 4.116-19.187 5.563-28.937l.328-2.187c1.707-11.416 3.048-22.808 3.903-34.323.203-2.52.459-5.028.73-7.541C794.382 322.63 793.171 284.529 793 247c-28.254-14.476-56.36-28.068-86.525-38.158a473 473 0 0 1-7.932-2.795C684.527 201.02 670.381 196.842 656 193l-3.737-1.001q-7.8-2.089-15.603-4.16c-6.546-1.735-13.08-3.5-19.597-5.339q-4.53-1.261-9.063-2.5l-3.07-.842c-21.048-5.721-42.267-10.27-63.63-14.643a788 788 0 0 1-23.402-5.195c-6.047-1.423-10.124-1.094-16.043.465"/><path fill="#FDF4E8" d="M396 467h49c8.172 27.103 8.172 27.103 10.063 35.625 1.757 7.915 3.937 15.69 6.151 23.489 2.557 9.015 5 18.059 7.389 27.12C470.2 559.24 471.969 565.127 474 571l.487-1.873Q477.237 558.56 480 548l.58-2.223c1.497-5.728 3.024-11.445 4.682-17.129 3.806-13.062 7.24-26.201 10.579-39.39l.565-2.223q.52-2.05 1.035-4.102c1.365-5.374 2.96-10.606 4.559-15.933h49v173h-36v-99h-2l-.27 3.684c-.708 6.338-2.591 12.287-4.418 18.379-2.647 9.023-5.16 18.048-7.375 27.187-2.246 9.243-4.813 18.359-7.53 27.474-1.883 6.355-3.548 12.686-4.9 19.178C488 639 488 639 487 640c-1.927.087-3.857.107-5.785.098l-3.545-.01-3.733-.025-3.744-.014q-4.597-.018-9.193-.049-1.064-3.812-2.125-7.625l-.682-2.45a1573 1573 0 0 1-3.58-13.07 1067 1067 0 0 0-8.55-30.043c-3.823-12.721-7.197-25.54-10.434-38.421A88 88 0 0 0 434 543l-1 99h-37z"/><path fill="#FDF4E7" d="M637 467h36c6.916 14.985 6.916 14.985 9.523 21.027l.92 2.122a5518 5518 0 0 1 2.932 6.788c.51 1.178.51 1.178 1.028 2.38 6.214 14.381 12.316 28.808 18.368 43.257l.973 2.321q.888 2.118 1.772 4.237c2.091 4.991 4.284 9.919 6.484 14.868l1-97h38v185c-7.962 0-15.494-.322-23.375-1.125l-3.52-.281c-8.37-.871-8.37-.871-11.625-4.074L714 643l-.977-2.174c-1.17-2.65-2.255-5.326-3.336-8.014-3.93-9.615-7.978-19.17-12.099-28.706-5.288-12.246-10.455-24.53-15.4-36.918l-.767-1.916c-2.286-5.726-4.47-11.42-6.421-17.272l-1 97c-12.338 0-24.681-.316-37-1z"/><path fill="#FDF5E8" d="M827.282 466.554c2.451.008 4.9-.02 7.35-.052 15.488-.069 31.725 1.59 43.571 12.533 7.27 7.634 11.94 16.208 11.895 26.82l-.005 2.005c-.005 2.11-.018 4.218-.03 6.327q-.008 2.148-.014 4.295-.017 5.259-.049 10.518c-12.715.114-25.32.017-38-1l-.113-3.543q-.099-2.322-.2-4.645l-.068-2.33c-.212-4.5-.396-8.066-3.619-11.482-6.024-2.196-11.887-2.336-18.25-2.313l-2.68-.048-2.586-.002-2.32-.01c-2.803.483-4.085 1.448-6.164 3.373-.595 2.094-.595 2.094-.501 4.465l-.03 2.77.03 3.032-.017 3.199c-.013 3.498.004 6.996.022 10.495q0 3.64-.005 7.283 0 7.639.034 15.277c.029 6.53.026 13.059.013 19.588-.007 5.015.001 10.03.014 15.046q.006 3.61 0 7.222c-.002 3.366.014 6.731.036 10.097l-.014 3.02c.063 6.753.063 6.753 3.418 12.506 4.998 2.438 10.52 2.663 16 3l2.95.2 2.925.112 2.68.114c3.387-.59 4.354-1.71 6.445-4.426.418-2.667.605-4.941.61-7.61l.05-2.202c.048-2.313.07-4.625.09-6.938q.042-2.358.09-4.715c.074-3.845.123-7.69.16-11.535l-1.687.035c-.764.01-1.527.018-2.313.027l-2.25.036c-3.6-.128-7.176-.651-10.75-1.098v-37c7.434 0 14.557.18 21.918.875l2.98.269c3.097.28 6.193.568 9.29.856l6.353.578q7.73.704 15.459 1.422.141 15.974.207 31.947c.021 4.946.05 9.892.095 14.837q.063 7.168.078 14.336.01 2.726.043 5.451c.152 13.26-.691 24.395-10.423 34.429-9.09 7.437-17.656 9.565-29.187 9.5l-3.536-.013c-9.015-.17-17.767-1.169-26.652-2.675l-3.54-.593c-13.707-2.551-26.97-6.729-35.397-18.469-5.58-9.383-7.281-17.922-7.206-28.758l-.02-3.793c-.015-3.402-.012-6.802 0-10.203.01-3.58.001-7.16-.005-10.739q-.01-9.012.022-18.025c.021-6.92.014-13.84-.008-20.76q-.026-8.955-.01-17.91c.006-3.553.007-7.106-.006-10.66-.014-3.965.005-7.93.027-11.894l-.024-3.512c.118-11.406 3.06-20.11 11.065-28.336 11.547-10.071 27.162-10.683 41.76-10.606"/><path fill="#FEF5E8" d="M188.427 465.63c2.503-.005 5.005-.041 7.509-.08 12.951-.09 25.228 1.041 35.064 10.45 8.794 8.894 11.244 17.916 11.225 30.164l-.037 3.711-.002 3.781c-.046 9.204-.046 9.204-1.186 10.344a236 236 0 0 1-8.41.535l-2.552.13q-4.05.203-8.1.398-2.74.136-5.479.275-6.729.338-13.459.662l-.113-3.797-.2-4.953-.068-2.5c-.155-3.49-.319-6.13-1.854-9.3-2.336-1.92-3.69-1.94-6.695-1.91l-2.91.01-3.035.075-3.012.004c-6.795.059-6.795.059-13.113 2.371-1.852 2.934-2.25 5.193-2.247 8.63l-.013 2.804.017 3.054-.006 3.234c-.003 3.53.007 7.06.019 10.59v7.353q.003 7.707.024 15.414.024 9.886.02 19.773.001 7.592.013 15.184.004 3.645.006 7.292.004 5.092.022 10.184l-.002 3.054.013 2.804.005 2.431c.128 2.185.526 4.1 1.129 6.199 3.687.088 7.374.14 11.063.188l3.146.076c6.05.057 10.511-.19 15.791-3.264 2.404-3.606 2.346-6.337 2.414-10.512l.059-2.206c.06-2.323.106-4.646.152-6.97l.117-4.728c.098-3.861.177-7.722.258-11.584h-18v-36l16.188-1 4.957-.316c11.626-.708 23.21-.788 34.855-.684q.141 14.748.207 29.497.03 6.85.095 13.7c.044 4.415.067 8.83.078 13.246q.01 2.514.043 5.028c.169 13.541-1.213 25.811-10.423 36.529-15.487 15.518-41.64 17.104-62.375 17.313l-3.024.053c-9.818-.009-17.935-1.904-25.558-8.272-6.355-6.513-10.285-14.821-10.304-23.95l-.021-3.474.007-3.769-.015-4.003c-.014-3.614-.014-7.227-.012-10.841q0-4.536-.008-9.072-.016-10.71-.006-21.421c.006-7.347-.006-14.694-.027-22.04q-.026-9.486-.02-18.97c.001-3.77-.001-7.539-.015-11.308q-.018-5.324.002-10.648c.004-1.909-.008-3.817-.02-5.726.075-12.283 2.866-21.612 11.142-30.813 12.609-12.137 30.22-12.433 46.68-12.43"/><path fill="#FDF5E9" d="m292.208 466.88 2.954.006h3.337l3.63.016 3.695.005c3.913.005 7.826.018 11.739.03q3.968.008 7.935.014 9.75.017 19.502.049l.519 2.703q.966 5.024 1.935 10.047l.832 4.326c1.777 9.363 1.777 9.363 3.784 18.678.975 4.268 1.66 8.569 2.363 12.889 1.108 6.558 2.414 13.08 3.692 19.607l.922 4.727A7120 7120 0 0 0 366 575a8923 8923 0 0 1 7.42 37.307q.446 2.271.895 4.541c1.852 9.352 3.44 18.697 4.685 28.152-12.683.741-25.296 1.138-38 1-1.345-6.415-2.525-12.851-3.625-19.312l-.41-2.354-.38-2.26-.341-2.013c-.277-2.339-.244-4.706-.244-7.061l-39 1v7a148 148 0 0 1-1.059 6.773c-.22 1.237-.442 2.473-.67 3.747l-.708 3.855-.698 3.926c-1.731 9.565-1.731 9.565-2.865 10.699-3.143.527-6.328.765-9.5 1.063l-2.843.27c-8.569.761-17.062.87-25.657.667.515-10.253 2.69-20.162 4.75-30.187q.51-2.511 1.016-5.022a2990 2990 0 0 1 4.426-21.473c2.956-14.075 5.751-28.176 8.487-42.295 3.49-17.989 7-35.956 11.215-53.79 1.45-6.144 2.687-12.265 3.668-18.5 2.19-13.665 2.19-13.665 5.646-13.853"/><path fill="#FC9730" d="M269.281 677.582c3.463-.274 6.322-.325 9.719.418 3.039 2.806 4.345 6.26 6 10a356 356 0 0 0 3.75 6.688l1.011 1.78c8.873 15.504 19.62 29.681 31.321 43.141 2.61 3.01 5.116 6.093 7.606 9.203 5.756 7.077 12.17 13.318 19.09 19.247 2.221 1.94 4.387 3.934 6.549 5.941 4.871 4.522 9.824 8.821 15.064 12.918 2.438 1.946 4.81 3.956 7.17 5.995 21.395 18.414 45.644 32.69 71.022 44.899 3.695 1.816 7.3 3.786 10.917 5.75 13.72 7.351 27.93 13.657 42.5 19.125l2.768 1.065 2.607.947 2.273.839c5.53 1.086 10.357-1.19 15.383-3.311l2.013-.847c2.156-.91 4.306-1.831 6.456-2.755l2.237-.955c12.67-5.42 25.086-11.207 37.263-17.67l2.67-1.412A942 942 0 0 0 594 828l3.06-1.717c11.922-6.728 23.51-13.587 34.314-22.017a342 342 0 0 1 4.825-3.676c12.723-9.625 25.08-19.767 36.801-30.59q1.534-1.38 3.07-2.758C687.405 757.018 697.507 745.956 707 734l2.648-3.27c12.44-15.454 22.96-32.242 32.258-49.753C743 679 743 679 744 678c7.795.153 15.418 1.237 23 3-10.185 27.725-33.412 55.161-53 77l-2.605 2.941c-6.256 6.97-12.841 13.63-19.437 20.276q-1.494 1.507-2.984 3.018A225 225 0 0 1 668 803q-1.57 1.274-3.137 2.55c-9.534 7.706-19.588 14.556-29.8 21.325l-2.605 1.733c-12.358 8.212-24.808 15.915-37.877 22.951-2.662 1.486-5.241 3.066-7.823 4.687-18.447 11.473-38.344 19.613-58.416 27.794a408 408 0 0 0-4.991 2.087l-2.66 1.112-2.403 1.02c-7.748 2.51-15.957-1.704-23.1-4.509l-3.235-1.244c-7.036-2.718-14.03-5.512-20.953-8.506l-3.527-1.434c-9.834-4.055-18.924-9.094-28.102-14.453-5.132-2.995-10.335-5.844-15.558-8.676C409.264 841.49 395.3 832.902 382 823l-1.88-1.394c-4.026-2.987-8.031-6-12.027-9.026a1221 1221 0 0 0-6.429-4.81c-8.496-6.362-16.473-13-24.142-20.333a227 227 0 0 0-4.604-4.21 216 216 0 0 1-17.285-17.29 241 241 0 0 0-5.016-5.437c-7.655-8.085-14.168-16.982-20.743-25.95-1.756-2.39-3.528-4.766-5.304-7.14-6.9-9.298-13.048-18.878-18.886-28.875-2.701-4.618-5.614-9.05-8.672-13.441C256 683 256 683 256.332 680.719L257 679c4.088-.554 8.19-.897 12.281-1.418"/><path fill="#10151C" d="M650.203 271.031c7.664 3.853 14.283 9.906 17.797 17.844 2.132 6.878 1.853 14.527-1 21.125l1.617-.656c7.204-2.692 14.29-4.006 21.57-.844 8.15 4.676 12.916 12.809 15.813 21.5.758 8.074-.057 15.11-5.027 21.68-8.94 10.264-8.94 10.264-15.973 11.32-2.374.093-4.75.13-7.125.125l-3.758.008C671 363 671 363 669 362l.14 2.71c.32 10.714-1.092 18.84-8.57 26.825-5.875 5.48-12.166 8.011-20.144 7.77-7.588-.953-13.478-4.301-18.598-9.91-5.436-7.121-8.561-13.89-8.234-22.922.444-2.706 1.297-4.972 2.406-7.473l-2.312 1c-6.378 1.73-12.903 2.203-19-.687A83 83 0 0 1 591 357l-3-1.937c-5.861-5.327-10.317-12.163-11.684-19.965-.253-7.673.46-13.347 5.684-19.098l1.61-1.89c4.723-5.157 11.264-9.784 18.476-10.243 4.1.014 7.916.101 11.914 1.133l-1-3c-.778-9.208-.25-16.613 5.578-24 8.194-8.858 20.365-10.594 31.625-6.969"/><path fill="#FEF6E9" d="M576 467h38v175c-19 0-19 0-38-2z"/><path fill="#10161C" d="m383.438 283.688 2.853-.088 2.768-.026 2.51-.044c3.43.663 5.045 1.942 7.431 4.47.568 2.84.568 2.84.488 6.078l-.049 3.516-.127 3.656-.068 3.703A619 619 0 0 1 399 314l2-1c3.555-.321 7.12-.324 10.688-.375l2.974-.113c5.689-.069 9.633.308 14.045 4.093 4.2 4.531 3.596 10.137 3.543 15.957l.023 2.577-.007 2.49-.007 2.252c-.3 2.46-.95 4.019-2.259 6.119-6.056 4.7-11.48 4.49-18.937 4.25l-3.229-.055A568 568 0 0 1 400 350l.063 2.108c.084 3.172.136 6.344.187 9.517l.102 3.316c.11 9.124.11 9.124-2.055 12.707-4.365 4.47-8.553 4.66-14.553 4.772l-2.682.017-2.67.1c-4.42.037-7.447-.088-10.958-2.94-3.562-3.801-3.556-5.58-3.532-10.699l.01-3.671.026-3.852.013-3.875q.018-4.75.049-9.5l-2.292.111c-3.444.146-6.887.237-10.333.327l-3.605.177c-8.393.164-8.393.164-11.923-1.833-3.953-3.966-4.577-8.12-4.57-13.57l.098-2.774-.02-2.788c.09-5.677.788-9.211 4.645-13.65 3.446-2.298 4.71-2.236 8.762-2.195l3.388.02 3.538.05 3.572.027q4.37.036 8.74.098l-.08-1.94a635 635 0 0 1-.233-8.748l-.126-3.052c-.124-7.48-.124-7.48 2.709-11.405 5.313-3.61 10.935-3.104 17.168-3.168"/><path fill="#10151C" d="m434.625 373.313 2.359.017c9.865.396 18.298 4.38 25.204 11.545 5.264 6.913 6.808 14.567 5.812 23.125-2.136 9.598-6.812 15.715-15 21-4.56 2.69-8.66 4.573-14 5l-2.242.191c-8.11.392-14.976-1.839-21.508-6.691-6.14-5.863-9.47-13.216-9.811-21.648-.008-11.282 2.467-17.125 9.916-25.555 5.86-5.09 11.557-7.059 19.27-6.985M588 377l2.148 1.027c6.949 3.74 10.94 9.984 14.29 16.973 1.868 9.963.022 17.267-5.25 25.75-4.864 6.92-11.057 9.669-19.188 11.25-9.593 1.216-17.07-.346-25-6-2.853-2.752-4.987-5.593-7-9l-1.086-1.793c-3.45-7.17-3.454-17.762-.883-25.184 9.182-16.476 25.15-21.779 41.969-13.023"/><path fill="#F8F2E7" d="M322 679h13l1.496 5.836 1.44 5.59q.745 2.9 1.488 5.8l.947 3.672.873 3.396c.647 2.646.647 2.646 1.756 4.706l.519-2.016q1.176-4.555 2.356-9.109l.816-3.172.801-3.086.73-2.825c.825-2.96 1.806-5.876 2.778-8.792h13c2.452 6.243 4.384 12.543 6.188 19l.826 2.926q.998 3.535 1.986 7.074c2.748-8.56 5.393-17.075 7.422-25.84C381 680 381 680 382 679c2.02-.072 4.042-.084 6.063-.062l3.347.027L394 679c-1.765 8.739-4.412 17.188-7.038 25.696-2.436 7.908-4.64 15.801-6.368 23.899C380 731 380 731 379 732a96 96 0 0 1-5.937.25l-3.278.078L367 732c-2.02-3.031-2.751-5.239-3.691-8.727l-.924-3.375c-.47-1.744-.47-1.744-.947-3.523q-.936-3.458-1.88-6.914l-.834-3.1c-.502-2.295-.502-2.295-1.724-3.361l-.988 3.805c-2.202 8.443-4.417 16.862-7.012 25.195h-12l-.81-2.876c-1.35-4.721-2.792-9.413-4.23-14.108l-1.757-5.77a5700 5700 0 0 0-2.759-9.033 4311 4311 0 0 1-2.67-8.76l-.843-2.737-.77-2.54c-.224-.735-.45-1.471-.68-2.23C322 682 322 682 322 679"/><path fill="#F9F2E5" d="M465 679c28.634 0 28.634 0 34.875 5.563 2.682 3.472 2.772 6.81 2.559 11.09-.613 3.315-1.929 5.137-4.434 7.347h-2v2l2.313.688c3.43 1.675 4.257 2.774 5.687 6.312.695 4.596.458 8.008-1.5 12.25-3.999 4.399-7.622 7.387-13.682 8.152-3.621.09-7.197.034-10.818-.09L465 732z"/><path fill="#2C3F53" d="M393.203 251.746c6.812-.773 12.873-1.409 18.719 2.676 3.285 2.625 6.206 5.51 9.078 8.578 1.566 1.566 3.099 1.134 5.276 1.145l2.796.02 3.092.009 3.237.02q3.492.021 6.985.036 5.52.026 11.042.065 15.7.104 31.404.182a7935 7935 0 0 1 19.182.12q3.664.024 7.328.037c3.412.012 6.824.036 10.236.063l3.08.002 2.812.03 2.446.012C532 265 532 265 535 267c-1 1-1 1-2.855 1.119l-2.477-.01-2.833-.004-3.135-.02-3.281-.01c-3.602-.012-7.204-.033-10.806-.055l-3.719-.022a9766 9766 0 0 1-17.479-.115q-9.082-.07-18.166-.1-9.737-.031-19.474-.112-3.715-.026-7.43-.032c-3.466-.007-6.932-.04-10.398-.077l-3.104.01c-7.564-.122-10.951-1.606-16.28-7.072-3.578-3.49-6.812-6.474-12.012-6.523-2.216.243-4.37.568-6.551 1.023l1 2 2.5.812L401 259c.656 2.574.656 2.574 1 5l-2.272.18c-18.956 1.582-32.168 3.899-47.17 15.867-2.152 1.643-4.095 2.863-6.558 3.953v2a282 282 0 0 1-5 5 97 97 0 0 0-3 4c-2.375-.188-2.375-.188-5-1-1.313-2.563-1.313-2.563-2-5l-1.188 2.437a171 171 0 0 1-4.25 7.813c-2.262 4.029-3.994 8.133-5.648 12.441-1.138 2.875-2.475 5.575-3.914 8.309h-2c.371-3.193.743-5.573 2.414-8.348 1.65-2.758 2.613-5.364 3.648-8.402 7.046-18.64 18.761-35.395 37.13-44.09 10.202-4.214 20.677-6.14 31.617-6.98q2.2-.181 4.394-.434"/><path fill="#FEF6EA" d="M410 679h34v11h-21v10h18v10h-18v11h22v11h-35z"/><path fill="#F9F2E5" d="M664 679h34v11h-21v10h17v10h-17v11h21v11h-34z"/><path fill="#FBF5EA" d="M550 680.313c2.958 1.759 4.032 2.735 6 5.687-.9 1.035-1.82 2.053-2.75 3.063l-1.547 1.722L550 692c-1.844-.312-1.844-.312-4-1a123 123 0 0 0-5.75-.062l-2.984.027L535 691c-.68 2.397-.68 2.397-1 5 2.567 2.567 4.62 2.789 8.125 3.688 6.064 1.857 11.504 3.632 14.875 9.312 1.17 5.904.835 11.017-1.5 16.563-6.154 6-12.075 7.058-20.548 7.063-6.307-.265-10.407-2.384-14.952-6.626.784-3.861 2.428-6.013 5-9 4.737 1.842 4.737 1.842 6.875 3.125 3.12 1.285 5.79 1.117 9.125.875l3-2c-.188-2.445-.188-2.445-1-5-2.46-1.87-4.838-2.19-7.875-2.875-5.216-1.234-9.689-3.965-13.125-8.125-1.566-4.697-1.807-9.11-1-14 2.522-4.587 5.877-7.322 10.313-10 6.838-1.855 12.32-2.075 18.687 1.313"/><path fill="#F6F0E6" d="M605 679h41v11h-14v42h-13v-42h-14z"/><path fill="#11171C" d="M316 507h2c8.607 48.065 8.607 48.065 11 72h-26c1.268-8.51 2.695-16.956 4.348-25.398l.657-3.392q1.025-5.293 2.058-10.585 1.035-5.325 2.068-10.65.639-3.294 1.282-6.587c.993-5.119 1.913-10.217 2.587-15.388"/><path fill="#010305" d="m584.535 464.734 2.529-.005a959 959 0 0 1 5.288.01c2.704.011 5.407 0 8.11-.012q2.568 0 5.136.007l2.459-.012c5.713.048 5.713.048 7.943 2.278.252 2.974.252 2.974.254 6.87l.01 2.167c.007 2.408.001 4.815-.005 7.223q.003 2.58.01 5.163c.01 4.684.006 9.368 0 14.052-.005 4.893 0 9.786.002 14.679q.005 12.327-.01 24.655-.015 14.269.003 28.537.014 12.234.006 24.466-.007 7.314.003 14.628.007 6.876-.01 13.75-.004 2.529.002 5.058c.006 2.294-.001 4.587-.011 6.881l-.002 3.897C616 642 616 642 614 644c-1.948.243-1.948.243-4.332.23l-2.654-.003-2.827-.04-2.86-.019c-7.143-.078-14.219-.43-21.327-1.168v-2c11.396-.153 22.584.4 34 1V467h-39v173h-2q-.106-33.783-.155-67.566a17462 17462 0 0 0-.071-31.37q-.046-13.666-.056-27.333c-.004-4.827-.013-9.654-.035-14.48a2490 2490 0 0 1-.022-13.617q-.001-2.505-.019-5.01a672 672 0 0 1-.003-6.816l-.008-3.86L573 467c3.86-2.573 7.06-2.288 11.535-2.266"/><path fill="#4D6173" d="m314 332 4 3c-.598 6.096-2.405 11.39-4.5 17.125-3.334 9.354-6.43 18.768-9.375 28.25l-1.154 3.688c-1.752 5.672-3.366 11.301-4.577 17.113-.486 2.248-1.143 4.402-1.894 6.574l-.773 2.262a78 78 0 0 1-1.852 4.55c-.831 2.317-1.053 4.07-1.25 6.5-.666 4.197-1.34 5.395-4.625 7.938l-3-1q.177-2.033.375-4.062c.07-.755.14-1.509.21-2.286.415-2.652.415-2.652 1.353-5.925.945-3.316 1.635-6.547 2.253-9.93 1.824-9.924 4.227-19.674 6.809-29.422l1.006-3.842c1.902-7.075 4.137-13.792 6.994-20.533a478 478 0 0 0 1.563-4.082l1.437-3.73c.235-.629.47-1.257.71-1.905 1.562-4.008 3.444-7.063 6.29-10.283"/><path fill="#FEF8ED" d="M576 679h13v53h-13z"/><path fill="#FA9830" d="M685.188 321.125c3.33 2.22 6.038 4.258 7.812 7.875.932 4.985.576 8.804-1.625 13.375-3.866 4.273-7.021 6.83-12.875 7.125-5.667-.276-8.705-2.94-12.875-6.562-2.538-4.588-2.707-8.834-1.625-13.938 4.959-8.295 11.948-11.136 21.188-7.875"/><path fill="#F99730" d="M609.082 318.695c4.808 2.123 7.692 4.389 9.918 9.305.814 4.725.499 8.02-1.687 12.313-5.47 6.355-5.47 6.355-9.833 7.14-5.047.304-8.561.086-12.543-3.203-3.49-3.38-4.835-6.211-5.312-11.062.134-4.513 1.53-7.709 4.375-11.188 4.822-4.179 8.91-5.366 15.082-3.305"/><path fill="#1B2834" d="M547.625 334.063c5.237 4.272 8.97 8.366 9.75 15.25-.5 4.917-1.92 6.231-5.375 9.687-4.472 2.981-8.758 2.479-14 2-2.812-1.062-2.812-1.062-5-3l-1.625-1.406c-3.37-3.309-4.819-5.892-5.062-10.656.333-5.214 1.812-7.494 5.687-10.938 4.786-2.846 10.514-3.006 15.625-.937"/><path fill="#F89730" d="M643 282c5.675 2.043 9.299 5.597 12 11 .696 4.88.587 8.795-2.25 12.938-2.501 3.265-5.022 4.817-9.117 5.398-5.722.09-9.256-.271-13.633-4.336-2.767-3.415-4.247-6.65-4.5-11.062.739-5.817 2.895-8.583 7.313-12.313 3.807-1.941 5.961-2.153 10.187-1.625"/><path fill="#FC9830" d="M646 356c4.008 2.04 6.639 4.191 9 8 .728 4.79.633 9.434-1.187 13.938-2.582 2.937-5.304 5.308-8.813 7.062-5.471-.039-10.698-.35-15-4-3.515-3.878-3.672-8.164-3.562-13.2.958-4.774 3.926-7.723 7.562-10.8 3.71-1.855 7.951-1.454 12-1"/><path fill="#1B2834" d="M477 334c5.342 1.78 9.215 5.127 12 10 .973 3.277 1.01 5.73 0 9-2.098 3.459-4.303 5.358-8 7-5.419.597-11.074.579-15.977-2.066-2.413-2.252-3.736-4.68-4.023-7.934a195 195 0 0 1 0-7h2l.25-2.25c2.003-7.344 7.068-7.683 13.75-6.75"/><path fill="#0B0B0D" d="M502 465q10.654-.037 21.307-.055 3.628-.008 7.255-.02c3.468-.013 6.935-.018 10.403-.023l3.298-.015h3.034l2.685-.007C552 465 552 465 553 466c.101 2.248.13 4.5.134 6.75l.007 2.164q.007 3.617.004 7.232l.01 5.163q.014 7.032.012 14.064.003 5.86.008 11.72.013 13.82.01 27.64.001 14.28.026 28.56.019 12.24.018 24.479-.002 7.319.013 14.638.014 6.88.003 13.762-.003 2.531.007 5.062c.008 2.297.003 4.592-.005 6.889l.002 3.9C553 641 553 641 551 643a103 103 0 0 1-8.07.195l-2.413-.008c-2.548-.011-5.095-.037-7.642-.062q-2.587-.016-5.176-.027-6.35-.035-12.699-.098v-2h36V467h-50z"/><path fill="#4E6173" d="m401 259 1 5-2.272.18c-18.956 1.582-32.168 3.899-47.17 15.867-2.152 1.643-4.095 2.863-6.558 3.953v2a282 282 0 0 1-5 5 97 97 0 0 0-3 4c-4.875-.875-4.875-.875-6-2-.455-2.657-.406-4.354 1.047-6.664 1.328-1.649 1.328-1.649 3.953-4.336h2l1-3c9.178-7.733 19.584-14.095 31.434-16.46 1.858-.391 3.704-.842 5.539-1.33 8.133-2.114 15.642-2.55 24.027-2.21"/><path fill="#000104" d="m644.93 464.629 2.384-.027a769 769 0 0 1 4.998-.028 503 503 0 0 0 7.637-.111q2.428-.015 4.856-.022l2.304-.059c3.87.033 5.517.254 8.338 3 1.47 2.477 2.481 4.677 3.303 7.43l.734 2.395L680 479l-2 1-5-12-36-1 1 177 11 1v1q-3.22.039-6.437.063l-3.622.035C636 646 636 646 635 645c-.102-2.286-.13-4.576-.134-6.864l-.007-2.201q-.007-3.678-.004-7.357l-.01-5.251q-.014-7.153-.012-14.306-.003-5.961-.008-11.922-.013-14.057-.01-28.114-.001-14.526-.026-29.05-.019-12.45-.018-24.9.002-7.444-.013-14.89-.014-6.998-.003-13.998.003-2.574-.007-5.15c-.008-2.335-.003-4.67.005-7.006l-.002-3.968c.521-6.328 5.026-5.358 10.179-5.394"/><path fill="#FCFCF9" d="M549 493h1c.814 8.945 1.14 17.797 1.114 26.777v3.966q-.001 5.316-.013 10.634c-.006 3.72-.006 7.441-.008 11.162q-.005 10.539-.021 21.079-.015 12.01-.022 24.022-.016 24.68-.05 49.36h-36l1-100 2-1v98l31 1z"/><path fill="#FEFDF8" d="M396 468h47l-1 2h-43v170l-2-1z"/><path fill="#FEFDF9" d="M576 468h36l-1 2c-3.812.03-7.625.047-11.437.063l-3.24.025-3.194.01-2.904.016c-4.09-.144-8.158-.662-12.225-1.114v169h14l2 2h-18zM718 468h35v184l-7-1 1-2h4V470l-33-1zM639 472h1v170h24l2 2h-28q-.035-33.418-.052-66.835-.007-15.516-.023-31.03-.015-13.518-.02-27.036 0-7.163-.01-14.325a7312 7312 0 0 1-.008-13.466q0-2.479-.006-4.958-.006-3.369-.001-6.738l-.003-3.818C638 473 638 473 639 472"/><path fill="#CFCDC8" d="M716 467h38v185h-1V468l-6 1v1c-4.083.197-8.166.381-12.25.563l-3.512.17-3.379.146-3.11.143c-2.468-.02-4.406-.294-6.749-1.022l.016 2.061c.135 21.172-.155 42.334-.516 63.502l-.036 2.124Q717.239 550.843 717 564h-1z"/><path fill="#010204" d="m611.426 676.722 2.668.012 2.734-.005q2.865-.002 5.73.01c2.93.011 5.86 0 8.79-.012q2.779 0 5.558.007l2.668-.012c6.196.048 6.196.048 8.426 2.278.3 2.531.3 2.531.313 5.5l.05 2.969L648 690c-3.42 2.28-4.682 2.22-8.687 2.125l-3.012-.055L634 692l.016 3.64q.026 6.67.039 13.34.008 2.89.02 5.78c.013 2.764.018 5.53.023 8.295l.015 2.62c0 6.097 0 6.097-1.113 8.325-2.291.054-4.583.093-6.875.125l-3.867.07C619 734 619 734 617 732a126 126 0 0 1-.195-8.945l.008-2.682c.011-2.833.037-5.665.062-8.498q.016-2.877.027-5.754.035-7.06.098-14.121l-2.555.07-3.32.055-3.305.07C605 692 605 692 603 690c-.266-2.531-.266-2.531-.25-5.5l-.016-2.969c.57-5.428 4.057-4.773 8.692-4.809M605 679v11h14v42h13v-42h14v-11z"/><path fill="#010305" d="m415.36 676.722 2.202.012 2.264-.005q2.37-.002 4.741.01c2.423.011 4.846 0 7.269-.012q2.301 0 4.601.007l2.204-.012c5.13.048 5.13.048 7.359 2.278.195 2.602.195 2.602.125 5.625l-.055 3.04L446 690h-1l-1-10-34-1v53h35v-11h-21v-10h6l-2 2h-3l1 5 1.712.06c2.555.095 5.109.205 7.663.315.89.03 1.779.062 2.695.094l2.578.117 2.38.095C445 719 445 719 447 721c.266 2.531.266 2.531.25 5.5l.016 2.969C447 732 447 732 445 734c-2.63.2-5.151.28-7.781.266l-2.331.005q-2.442.003-4.883-.01c-2.495-.011-4.99 0-7.485.012q-2.37 0-4.739-.007l-2.27.012c-5.281-.048-5.281-.048-7.511-2.278-.254-2.24-.254-2.24-.259-5.06l-.019-3.196.012-3.463-.005-3.542q-.002-3.712.01-7.424c.011-3.8 0-7.598-.012-11.397q0-3.6.007-7.2l-.012-3.462.02-3.195c0-.932.002-1.863.004-2.822.54-4.765 3.51-4.479 7.613-4.517"/><path fill="#090A0C" d="m669.36 676.696 2.202.003 2.264-.013q2.37-.008 4.741-.002c2.424.003 4.846-.02 7.269-.045q2.301-.004 4.601-.002l2.204-.028c2.043.019 2.043.019 5.359.391 2.167 3.25 2.272 4.292 2.25 8.062l.016 2.66C700 690 700 690 698 692c-1.971.227-1.971.227-4.352.195l-2.578-.02-2.695-.05-2.719-.027A843 843 0 0 1 679 692v5l-2 1v-8h21v-11h-34v53l34-1 1-10h1c.054 1.791.093 3.583.125 5.375l.07 3.023C700 732 700 732 698 734c-2.558.2-5.004.28-7.563.266l-2.263.005q-2.37.002-4.741-.01c-2.423-.011-4.846 0-7.269.012q-2.301 0-4.602-.007l-2.203.012c-5.13-.048-5.13-.048-7.359-2.278-.254-2.24-.254-2.24-.259-5.06l-.019-3.196.012-3.463-.005-3.542q-.003-3.712.01-7.424c.011-3.8 0-7.598-.012-11.397q0-3.6.007-7.2l-.012-3.462.02-3.195c0-.932.002-1.863.004-2.822.54-4.758 3.512-4.485 7.613-4.543"/><path fill="#33465B" d="M404.352 251.203c7.022 1.534 11.715 6.825 16.648 11.797 1.566 1.566 3.099 1.134 5.276 1.145l2.796.02 3.092.009 3.237.02q3.492.021 6.985.036 5.52.026 11.042.065 15.7.104 31.404.182a7935 7935 0 0 1 19.182.12q3.664.024 7.328.037c3.412.012 6.824.036 10.236.063l3.08.002 2.812.03 2.446.012C532 265 532 265 535 267c-1 1-1 1-2.855 1.119l-2.477-.01-2.833-.004-3.135-.02-3.281-.01c-3.602-.012-7.204-.033-10.806-.055l-3.719-.022a9766 9766 0 0 1-17.479-.115q-9.082-.07-18.166-.1-9.737-.031-19.474-.112-3.715-.027-7.43-.032c-3.466-.007-6.932-.04-10.398-.077l-3.104.01c-7.564-.122-10.951-1.606-16.28-7.072-5.266-5.137-8.708-6.741-16-6.75-1.855.064-3.71.14-5.563.25 4.159-2.772 7.417-2.82 12.352-2.797"/><path fill="#FCFBF8" d="M133 497c1.043 3.128 1.11 5.244 1.082 8.524l-.021 3.48-.04 3.821q-.016 2.01-.028 4.02-.042 5.461-.094 10.922-.049 5.705-.092 11.41-.085 10.806-.18 21.611-.107 12.3-.203 24.602-.203 25.305-.424 50.61h-2q-.07-26.742-.104-53.484a16405 16405 0 0 0-.047-24.832q-.03-10.82-.037-21.638-.003-5.732-.023-11.463a2341 2341 0 0 1-.015-10.78c-.001-1.953-.012-3.907-.023-5.86l.008-3.501-.005-3.056C131 499 131 499 133 497"/><path fill="#010205" d="M816 508h1l.01 1.66q.121 19.993.278 39.986.076 9.668.134 19.337.056 9.327.136 18.654.029 3.563.045 7.124c.017 3.321.046 6.642.078 9.963l.007 2.988c.01.906.022 1.812.034 2.745l.016 2.38c.298 2.46.955 4.064 2.262 6.163 4.134 2.316 8.679 2.62 13.313 3.125l2.244.262q2.72.314 5.443.613v1c-2.522.082-5.04.14-7.562.188l-2.135.076c-5.19.071-8.76-.675-13.303-3.264-3.945-4.625-3.41-9.613-3.356-15.374l-.007-3.16c-.003-3.442.016-6.883.035-10.325l.006-7.169q.007-7.504.04-15.01c.03-6.428.04-12.857.044-19.286q.008-7.395.026-14.792l.015-7.115q.01-4.956.036-9.913l.003-2.997.018-2.71.009-2.369C815 509 815 509 816 508"/><path fill="#FCFBF8" d="M664 680h33v9h-20v-1h18v-6h-29l1 47h29l1-3v5h-33z"/><path fill="#C0BFB9" d="M613 467h1v175c-22.054 0-22.054 0-31-1v-1c9.743-1.202 19.072-1 29-1z"/><path fill="#E99A2F" d="m811 232 4 1q.035 14.122.052 28.243.007 6.558.023 13.115.016 6.332.02 12.663.003 2.413.01 4.825.01 3.386.009 6.772l.006 3.89c-.112 3.263-.526 6.286-1.12 9.492q-.209 3.134-.316 6.273l-.127 3.497-.12 3.605-.13 3.676q-.159 4.475-.307 8.949c-2.308-3.65-2.217-6.686-2.151-10.942l.024-2.097c.028-2.293.072-4.586.115-6.879l.069-4.848q.074-5.103.164-10.206.114-6.424.202-12.848c.267-18.74.675-37.459 1.577-56.18h-2z"/><path fill="#F8F6F0" d="M465 680h25v2h-22v47l20 1v1h-23z"/><path fill="#242423" d="M715 467h1v98c-3.126-3.126-4.533-6.013-6.187-10l-.827-1.906C707.775 550.228 707 548.143 707 545h2l4 10 .031-3.073q.146-14.345.308-28.69.083-7.376.158-14.75.072-7.12.156-14.239.03-2.713.056-5.428.037-3.805.086-7.612l.017-2.258c.057-4.079.404-7.946 1.188-11.95"/><path fill="#FCFCF9" d="M875 553h15q.034 16.155.052 32.31.007 7.501.023 15.002.016 7.236.02 14.472.003 2.764.01 5.528.01 3.864.009 7.728l.01 2.32c-.006 3.153-.119 5.625-1.124 8.64l-3 1 .487-2.006c.624-3.644.69-7.22.718-10.905l.03-2.367q.047-3.855.081-7.71l.063-5.36q.082-7.04.153-14.08.077-7.19.161-14.379.162-14.096.307-28.193l-2.082.07-2.73.055-2.708.07C878 555 878 555 875 553"/><path fill="#D5D3CE" d="M410 679h1v52h33l-2-2v-6h-20c-1.3-2.602-1.168-4.597-1.187-7.5l-.043-2.969C421 710 421 710 423 708c2.164-.195 2.164-.195 4.625-.125l2.477.055L432 708l1 2h-10v11h22v11h-35z"/><path fill="#FDFDFB" d="m411 679 30 1v1h-28v48l14.375.125 4.533.055 3.553.015 3.65.032c3.017.078 3.017.078 4.889-2.227v4h-33z"/><path fill="#0A0B0D" d="M608 690h11v42h13v-40h1v42h-14c-2-2-2-2-2.227-5.899q.001-2.523.032-5.046l.008-2.682c.011-2.833.037-5.665.062-8.498q.016-2.877.027-5.754.035-7.06.098-14.121h-11z"/><path fill="#D8D7D3" d="m186 549 3 2c.267 2.483.349 4.715.293 7.195l-.013 2.144a720 720 0 0 1-.093 6.786 2552 2552 0 0 0-.04 4.598q-.053 5.64-.147 11.277l3.684-.035 4.754-.028 2.431-.025c2.044-.009 4.088.036 6.131.088 1 1 1 1 1.098 4.598a675 675 0 0 1-.036 4.465l-.013 2.298q-.02 2.82-.049 5.639h-2v16h-1v-31h-18z"/><path fill="#33465B" d="m619.438 250.563 2.447.056c5.088.152 10.076.68 15.115 1.381l-1 3-1.66-.219c-2.777-.325-5.552-.563-8.34-.781l-3.758-.312c-7.17-.552-7.17-.552-13.687 1.875-1.882 1.875-1.882 1.875-3.356 3.906L604 261h-2l-.75 1.813c-1.556 2.722-2.485 3.643-5.25 5.187-3.178.523-6.346.605-9.562.688l-2.744.099c-2.564.087-5.129.154-7.694.213l-3.164.09c-8.287.115-16.571-.547-24.836-1.09v-1l1.713-.004c5.889-.02 11.777-.074 17.666-.149a814 814 0 0 1 6.59-.043c3.161-.009 6.32-.05 9.48-.097l2.971.012c5.81-.104 5.81-.104 10.614-3.263.65-.81 1.298-1.621 1.966-2.456h2l.81-1.799c4.027-7.451 9.617-9.09 17.628-8.639"/><path fill="#EAE8E4" d="M238 492h2c2.129 3.474 2.245 6.227 2.23 10.262l-.005 3.638-.037 3.788-.002 3.822c-.046 9.35-.046 9.35-1.186 10.49-1.852.158-3.71.251-5.566.316l-3.409.127-3.588.12-3.6.13q-4.417.16-8.837.307l-1-3 24-1z"/><path fill="#F1F0ED" d="M873 476c8.302 3.633 12.575 12.032 16 20 1.16 3.478 1.113 6.188 1.098 9.855l-.005 2.005c-.005 2.11-.018 4.218-.03 6.327q-.008 2.148-.014 4.295c-.01 3.506-.03 7.012-.049 10.518h-22v-1l20-1c-.087-4.334-.194-8.667-.312-13l-.069-3.7c-.336-11.316-2.988-20.834-11.342-28.98-1.384-1.158-2.825-2.248-4.277-3.32z"/><path fill="#FCFCF9" d="m209.367 547.902 2.093.005c2.138.005 4.276.018 6.415.03q2.217.009 4.434.014 5.345.017 10.691.049l-1 2c-14.159 2.485-29.783 1.066-44 1v30h-1v-32c15.75-1.125 15.75-1.125 22.367-1.098"/><path fill="#FDFDF9" d="M835 552h1v32h11l6 2v31h-1l-1-29-17-2q-.036-7.022-.055-14.044-.008-2.391-.02-4.781c-.013-2.287-.018-4.573-.023-6.859l-.015-2.171c0-1.716.051-3.43.113-5.145z"/><path fill="#13191F" d="M478 710c8.218-.363 8.218-.363 11.563 1.188C491 713 491 713 491.438 715.5c-.52 2.97-1.058 3.705-3.438 5.5-2.48.293-2.48.293-5.187.188L478 721z"/><path fill="#FDFCF8" d="M606 680h39v10l-13-1v-2h11v-5l-35 1-2 4z"/><path fill="#F3F0EC" d="M673 554h1v91h-19v-1l17-1z"/><path fill="#24282C" d="m478 689 3.813-.125 2.144-.07C486 689 486 689 489 691c.375 3.5.375 3.5 0 7-3.089 2.06-3.71 2.239-7.187 2.125L478 700z"/><path fill="#EAE7E0" d="M412 679h32v11h-21v-1l17-1 1-6h-28z"/><path fill="#1C1E1D" d="m674 547 2 1c.625 2.563.625 2.563 1 5h-2v92h-1z"/><path fill="#050609" d="M810 659c5.73-.313 10.945.279 16.563 1.375 11.045 2.137 22.229 2.837 33.437 3.625v2c-11.37.76-22.24-.565-33.437-2.375l-2.13-.337c-2.02-.322-4.037-.658-6.054-.999l-3.576-.603C812 661 812 661 810 659"/><path fill="#E4E0DA" d="M576 679h13v53h-13l3-4h8l1-48h-12z"/><path fill="#DE9330" d="m407 218 1 2-1.933.152q-4.502.358-9.005.723l-3.29.265c-7.257.601-14.477 1.34-21.68 2.426-3.773.514-4.788.637-8.092-1.566 14.074-3.649 28.527-4.355 43-4"/><path fill="#F5F3EE" d="M638 467h35l-1 3h-32l-1 3h-1z"/><path fill="#0A0E13" d="m695 291 1 2h2l.629 1.66c3.693 9.503 8.02 18.745 12.621 27.84 1.743 3.485 3.39 6.85 4.75 10.5l-1 3c-5.187-10.252-10.196-20.564-15-31l-1.547-3.277-1.39-2.973-1.215-2.578C695 294 695 294 695 291"/><path fill="#FEFDF9" d="M290 468h52l1 2-3.808-.016q-6.985-.026-13.972-.039-3.024-.008-6.05-.02c-2.896-.013-5.793-.018-8.69-.023l-2.737-.015h-2.547l-2.24-.007c-2.172.05-2.172.05-4.956 1.12-2.043-.121-2.043-.121-4.187-.437L290 470z"/><path fill="#010204" d="M204 585v33l-2-1v-30h-15v-1l7.375-.5 2.117-.145C201.773 585 201.773 585 204 585"/><path fill="#FEFDFB" d="M682.477 699.805q2.074.02 4.148.07l2.14.027c1.746.024 3.49.06 5.235.098v10h-17l1-2c2.941-.414 2.941-.414 6.563-.625l3.628-.227L691 707v-4l-14-1c2-2 2-2 5.477-2.195"/><path fill="#FEFDF9" d="M502 468h47l-1 2-1.725-.016q-3.918-.029-7.837-.046l-2.713-.026c-5.037-.018-9.754.316-14.725 1.088a447 447 0 0 1-6-1c-3.668-.091-7.331-.059-11 0l-1 2z"/><path fill="#030405" d="M513 541h2v31h-2l-.184-3.465-.254-4.472-.119-2.288c.117-3.694.117-3.694-1.443-6.775.214-4.7.965-9.414 2-14"/><path fill="#D9D7D0" d="M677 721h21v11h-34v-1h33l-1-8-19-1z"/><path fill="#06080C" d="m698 679 2 1q.079 2.438.125 4.875l.07 2.742C700 690 700 690 698 692c-1.971.227-1.971.227-4.352.195l-2.578-.02-2.695-.05-2.719-.027A843 843 0 0 1 679 692v5l-2 1v-8h21z"/><path fill="#030608" d="M888 492c3.89 3.436 4.364 6.986 5 12 .219 4.526.19 9.033.125 13.563l-.027 3.634Q893.062 525.6 893 530h-2l-.06-2.367c-.096-3.566-.205-7.13-.315-10.696-.03-1.229-.062-2.458-.094-3.724-.197-6.113-.596-11.417-2.531-17.213z"/><path fill="#2C2D2D" d="M514 605h1v35h36v1l-37 1c-1.565-3.13-1.001-6.427-.879-9.852l.072-2.345q.116-3.714.245-7.428l.158-5.031q.195-6.173.404-12.344"/><path fill="#07080A" d="M890 530v2c-12.347-.496-24.681-.997-37-2 8.262-5.508 27.603-1.731 37 0"/><path fill="#2A292A" d="M441 700h2v11c-3.88 1.94-5.348 2.273-9.5 2.25l-2.844.016C428 713 428 713 424 711v10h-1v-11h18z"/><path fill="#CFCDC7" d="M207 584v16h-2v16h-1v-31h-7v-1c6.625-1.125 6.625-1.125 10 0"/><path fill="#1C1620" d="M215 411h1q.973 6.217 1.938 12.438l.552 3.529c.982 6.336 1.862 12.654 2.51 19.033h-3a1366 1366 0 0 1-2.062-11.875l-.604-3.36c-1.147-6.844-1.474-12.905-.334-19.765"/><path fill="#FCFAF5" d="m254 648 1.934.254 2.504.308 2.496.317L263 649l1-1a57 57 0 0 1 4.035-.098l2.451.01 2.577.025 2.587.014q3.175.02 6.35.049v1l-5 1v1c-5.365.905-10.503 1.123-15.937 1.063l-2.362-.014q-2.85-.02-5.701-.049z"/><path fill="#31455A" d="M400 350h24v2h-22v12l-2-2z"/><path fill="#000103" d="M677 711h17v2h-15v6h19v1l-21 1z"/><path fill="#E79A30" d="M624 183c7.28.534 13.656 2.254 20.563 4.563l3.056.998q3.694 1.207 7.381 2.439v2c-7.175-1.309-14.13-3.072-21.125-5.125l-2.898-.84A2317 2317 0 0 1 624 185z"/><path fill="#1F2021" d="M638 644c12.154-.28 23.936.517 36 2v1h-36z"/><path fill="#F0EFEC" d="M873 476c7.459 3.264 11.71 10.469 15.066 17.59 1.237 3.193 1.712 6.002 1.934 9.41-2.9-2.605-3.769-5.087-5.062-8.746-2.814-6.764-7.092-11.939-12.938-16.254z"/><path fill="#34475C" d="m358 262-2.238 1.11C347.02 267.774 341.29 273.46 335 281l-1-3c4.5-6.941 15.06-18.776 24-16"/><path fill="#D1D0CD" d="m613 639 1 3c-10.384.098-20.662.156-31-1v-1c9.987-1.257 19.956-1.094 30-1"/><path fill="#030406" d="m179 463.902 2.185.005c2.272.005 4.543.018 6.815.03q2.33.009 4.66.014 5.67.017 11.34.049v1q-6.588.433-13.177.854-2.237.144-4.472.292c-7.79.511-15.54.995-23.351.854v-2c5.365-.757 10.577-1.139 16-1.098"/><path fill="#304358" d="M421 374v3c-1.828 1.797-1.828 1.797-4.25 3.75-5.42 4.656-7.94 8.914-10.375 15.625C405 400 405 400 403 401c1.54-9.549 5.5-17.654 13-24 1.634-1.053 3.292-2.073 5-3"/><path fill="#FDAC30" d="m593 224 3 1-5 2v2c-1.87 2.778-4.037 4.466-7 6-4.988.737-9.914.568-14.937.375q-2.048-.046-4.096-.082-4.985-.106-9.967-.293v-1l2.336.035c3.535.03 7.067-.002 10.601-.035l3.674.059c6.59-.108 10.633-.562 15.643-5.059a367 367 0 0 0 3.746-4z"/><path fill="#08091D" d="M510 159c6.426.621 12.63 1.635 18.938 3l2.572.54c6.22 1.325 6.22 1.325 8.49 2.46v2c-7.833-1.418-15.658-2.868-23.437-4.562l-3.184-.692L511 161z"/><path fill="#07090B" d="M376 692h1c-.452 5.915-1.158 11.352-3 17-2-1-2-1-2.852-3.363l-.773-2.95c-.26-.965-.52-1.93-.79-2.925C369 697 369 697 369 693h2l2 5 .938-1.875z"/><path fill="#221922" d="M266 399c1.489 3.943.567 7.51-.25 11.5l-.417 2.129c-1.235 6.176-2.708 12.286-4.333 18.371l-2-1c.517-6.468 2.172-12.353 4.012-18.566 1.185-4.118 2.12-8.24 2.988-12.434"/><path fill="#060608" d="M478 710h9v2h-7v7h8l2-4c-.875 4.875-.875 4.875-2 6-3.336.143-6.66.042-10 0z"/><path fill="#31455B" d="M363 377c2.48.443 3.846.868 5.788 2.525 2.81 1.873 4.5 1.821 7.853 1.768l3.242-.03 3.367-.075 3.414-.042A874 874 0 0 0 395 381v2c-21.803 3.007-21.803 3.007-29.645-2.71C364 379 364 379 363 377"/><path fill="#E79A2F" d="M493 882c4.623.31 8.733.741 13 2.625 5.41 2.233 10.586 1.18 16-.625l2 2c-10.458 4.754-17.884 1.932-28.254-1.941-.906-.35-1.812-.7-2.746-1.059z"/><path fill="#09090B" d="M502 699c0 3 0 3-1 6l1.938 1.813c3.132 3.321 3.181 5.996 3.125 10.375l-.028 2.73L506 722l-2 1-.148-2.23-.227-2.957-.21-2.918c-.424-2.955-1.067-5.235-2.415-7.895-2.524-1.36-2.524-1.36-5-2v-2a125 125 0 0 1 6-4"/><path fill="#060709" d="M306 569c1.082 3.365.925 4.298 0 8h19c-3.625 1.812-4.595 2.249-8.328 2.195l-2.422-.02-2.5-.05-2.547-.027c-2.068-.024-4.135-.06-6.203-.098.75-7.75.75-7.75 3-10"/><path fill="#EEEDE9" d="M279 525c1.112 3.337.87 4.707.223 8.105l-.557 2.979c-.2 1.024-.398 2.048-.603 3.104l-.592 3.138q-.726 3.84-1.471 7.674l-3 1c.501-5.712 1.355-11.308 2.438-16.937l.746-3.903C277 527 277 527 279 525"/><path fill="#DBDAD6" d="M260 611c2.01 3.65 2.062 5.44 1.25 9.563l-.613 3.183L260 627l-.48 3.16-.457 2.965-.403 2.695C258 638 258 638 255 640c.64-6.626 1.71-13.047 3.063-19.562l.564-2.768q.681-3.336 1.373-6.67"/><path fill="#090E13" d="M315 309h2c-.636 4.455-2.357 8.185-4.312 12.188-2.534 5.275-4.857 10.55-6.864 16.054C305 339 305 339 303 340c2.002-7.32 4.632-14.186 7.688-21.125.415-.956.83-1.913 1.26-2.898q1.518-3.492 3.052-6.977"/><path fill="#32465A" d="M365 285h2l-.974 2.169c-1.044 2.88-1.333 5.085-1.44 8.132l-.117 2.959-.094 3.053-.117 3.11q-.141 3.788-.258 7.577l-4-1h2l-.048-1.848a960 960 0 0 1-.14-8.34l-.076-2.908c-.094-9.107-.094-9.107 3.264-12.904"/><path fill="#09091B" d="M629 284h2c-2 4-2 4-3.125 5.75-1.584 4.074-1.71 8.18-.082 12.219 1.685 3.047 3.546 5.77 6.207 8.031-2.25-.125-2.25-.125-5-1-4.238-5.415-5.774-10.148-5-17 1.5-3.5 1.5-3.5 3-6h2z"/><path fill="#F5A32E" d="M672 774v2l-1.75.688c-2.84 1.656-4.202 3.738-6.25 6.312-5.743 5.84-5.743 5.84-9.937 6.375L652 789a155 155 0 0 1 11.125-10.312l1.59-1.377C668.648 774 668.648 774 672 774"/><path fill="#07091D" d="M395 162c-1 2-1 2-2.994 2.778l-2.592.73-2.82.8-2.969.817-2.945.84C373.42 170 373.42 170 370 170v-2c3.6-1.202 7.205-2.384 10.813-3.562l3.103-1.038 2.979-.966 2.745-.905C392 161 392 161 395 162"/><path fill="#FCAB2E" d="M704 765h2c-1.585 3.863-4.06 6.289-7.008 9.203l-1.471 1.463a1400 1400 0 0 1-4.646 4.584l-3.152 3.125A2895 2895 0 0 1 682 791l-1-3h2l1-3c1.566-1.543 1.566-1.543 3.563-3.187 5.354-4.548 10.445-9.297 14.812-14.813z"/><path fill="#EB9F30" d="m755 698 1 3c-1.355 2.544-1.355 2.544-3.402 5.543l-2.198 3.252-2.337 3.393q-1.165 1.712-2.327 3.427A1582 1582 0 0 1 740 725l-2-2 1.941-2.676c5.271-7.3 10.333-14.655 15.059-22.324"/><path fill="#020305" d="m489 636 1 3-2 3c-8.803 1.73-18.062 1.087-27 1v-2l2.247-.028c3.356-.054 6.71-.138 10.065-.222l3.538-.043 3.388-.098 3.127-.063c2.783-.308 2.783-.308 4.495-2.584z"/><path fill="#F5F2ED" d="M187 502c2.27-.081 4.541-.14 6.813-.187l3.832-.106c3.355.293 3.355.293 5.257 1.55 3.68 5.842 1.976 14.276 1.098 20.743l3 1-4 1-.113-3.797-.2-4.953-.068-2.5c-.152-3.439-.335-6.13-1.775-9.281-2.629-2.094-4.708-2.076-8.031-2.219l-3.293-.172L187 503z"/><path fill="#1E1721" d="M235 383h1c.75 4 1.12 7.767 1.098 11.836l-.01 3.223-.025 3.316-.014 3.387A2531 2531 0 0 1 237 413h-1c-.533-4.082-1.05-8.166-1.562-12.25l-.46-3.512-.42-3.379-.396-3.11c-.152-2.572-.012-4.336.838-6.749z"/><path fill="#E5E3DF" d="M341 633c1.435 2.487 2.049 4.312 2.5 7.188L344 643c2.833 1.416 5.475 1.346 8.625 1.563l3.602.253L359 645v1h-18c-2.125-9.75-2.125-9.75-1-12z"/><path fill="#E69B2F" d="M607 318c4.579 1.618 8.637 3.57 11 8v2h-2a263 263 0 0 1-4-5c-2.884-1.442-5.417-1.094-8.625-1.062l-3.602.027L597 322l1-3c3.129-1.564 5.527-1.28 9-1"/><path fill="#090E12" d="m618.063 247.625 3.66.04c3.007.307 4.747.757 7.277 2.335l-3.656-.027c-10.512-.196-10.512-.196-19.469 4.59-1.706 1.822-1.706 1.822-2.875 3.437l-2-1c9.292-9.558 9.292-9.558 17.063-9.375"/><path fill="#1D1721" d="M639.906 163.645q2.302.565 4.594 1.167l2.34.58c3.099.777 6.128 1.597 9.16 2.608v2c-8.028-.554-15.339-2.657-23-5 3-2 3-2 6.906-1.355"/><path fill="#EBEAE7" d="m271 557 2 2c-.048 2.155-.048 2.155-.46 4.79-.143.94-.285 1.881-.43 2.85l-.485 2.985-.46 3.008A939 939 0 0 1 270 580l-3 1c.714-8.137 2.328-16.017 4-24"/><path fill="#F4A430" d="M799 441h1v6c-3.79.886-7.287 1.117-11.176 1.098l-3.506-.01-3.63-.026-3.69-.013q-4.5-.018-8.998-.049v-1l2.539-.12q4.658-.236 9.314-.515a390 390 0 0 1 4.033-.209c1.932-.091 3.863-.21 5.794-.328l3.523-.19c2.931-.334 2.931-.334 4.192-2.69z"/><path fill="#DBD9D5" d="m745 648 2 2c2.57.648 2.57.648 5 1v1c-6.24.117-12.297-.333-18.5-1a2094.428 2094.428 0 0 1-9.5-1v-1c14.073-1.71 14.073-1.71 21-1"/><path fill="#212121" d="M316 507h2l1 11-2 1c-.465 1.895-.465 1.895-.625 4.063L316 527l-3 1c.827-7.028 1.902-14.01 3-21"/><path fill="#F3A030" d="M319 245c.813 1.688.813 1.688 1 4-2.25 2.438-2.25 2.438-5 5a788 788 0 0 0-3 5l-3 2-3-1q2.121-2.628 4.25-5.25l2.39-2.953c2.025-2.4 4.101-4.621 6.36-6.797"/><path fill="#E8E6E2" d="m502 711 2 1c.377 4.712.463 8.074-1.687 12.375-2.28 2.587-4.245 4.091-7.313 5.625v-3l2.438-2.062c3.216-3.687 3.225-6.079 3.421-10.829C501 712 501 712 502 711"/><path fill="#0B0C0D" d="M816 615h2l.688 1.875c1.77 2.867 3.104 3.101 6.312 4.125 2.759.498 5.526.821 8.313 1.125l2.244.262q2.72.314 5.443.613v1c-2.522.082-5.04.14-7.562.188l-2.135.076c-5.192.071-8.686-.86-13.303-3.264l-2-2z"/><path fill="#E8992E" d="M229 364h2c3.405 6.809 2.114 16.6 2 24-2.489-2.489-2.355-3.558-2.633-7.008l-.254-2.988-.238-3.129-.262-3.152q-.318-3.86-.613-7.723"/><path fill="#F3A531" d="M643 356c4.412.504 6.75 2.013 10 5 2.28 3.42 2.22 4.682 2.125 8.688l-.055 3.011L655 375l-2-1c-.344-2.145-.344-2.145-.5-4.812-.207-3.512-.423-6.27-2.5-9.188-2.678-.839-5.174-.818-8-1z"/><path fill="#DE912E" d="m615.3 217.902 2.96.01 3.053.025 3.11.014q3.79.018 7.577.049v1c-3.124.342-6.25.672-9.375 1-.87.095-1.74.19-2.637.29-6.018.623-11.939.827-17.988.71 4.35-2.9 8.16-3.128 13.3-3.098"/><path fill="#FEFDFA" d="m461 637 23 1 1 2h-24z"/><path fill="#07090B" d="M476 555h2c-.55 6.048-1.904 11.306-4 17-2.566-3.85-2.551-6.435-3-11l3 1z"/><path fill="#FDFCF9" d="m197 466-1 2c-2.809.414-2.809.414-6.437.625l-3.817.223c-4.587.186-9.157.247-13.746.152l1-2c7.851-1.602 16.023-1.087 24-1"/><path fill="#0A0E13" d="M329 282c1 3 1 3-.512 6.547a335 335 0 0 1-2.175 4.203l-1.069 2.094c-2.292 4.459-4.73 8.82-7.244 13.156-1-3-1-3 .512-6.547a335 335 0 0 1 2.175-4.203l1.069-2.094c2.292-4.459 4.73-8.82 7.244-13.156"/><path fill="#0A0F15" d="M648 272c7.434.875 11.85 5.644 16.68 10.902 1.603 2.547 1.577 4.143 1.32 7.098-2.016-2.433-3.833-4.665-5.25-7.5-3.057-4.368-7.752-6.834-12.75-8.5z"/><path fill="#DF932D" d="M558 167c7.954.454 15.328 1.871 23 4l-1 2c-7.408-1.076-14.715-2.271-22-4z"/><path fill="#0D0D0D" d="m212.64 524.707 3.243.03c1.111.024 2.222.05 3.367.076l3.414.04q4.169.054 8.336.147v1q-5.312.506-10.625 1c-.999.095-1.998.19-3.027.29-4.8.444-9.522.842-14.348.71 3.244-2.918 5.319-3.362 9.64-3.293"/><path fill="#0A0B1D" d="M285 295c1.109 3.278.93 4.953-.434 8.11l-.966 2.285-1.038 2.355-1.025 2.402A752 752 0 0 1 279 316h-2c.549-4.571 1.417-8.674 3-13h2l.938-2.875C284 297 284 297 285 295"/><path fill="#DF9530" d="M266 678c4.472-.597 8.555-.876 13 0 3.97 3.827 5.855 8.673 7 14-3.81-1.27-4.176-2.511-6-6l-.875-2.75c-.9-2.459-.9-2.459-3.312-3L273 680l-3.812-.562L266 679z"/><path fill="#060709" d="M258 614h1c.14 5.12-.335 9.786-1.312 14.813l-.358 2.021c-.38 1.936-.38 1.936-1.33 5.166l-3 2a1808 1808 0 0 1 3.063-18.187l.472-2.731C257 615 257 615 258 614"/><path fill="#E5E4E0" d="M480 548c2 3 2 3 1.645 6.145-.275 1.21-.55 2.42-.832 3.668l-.793 3.644c-.996 3.459-2.305 6.388-4.02 9.543-1.064-3.246-.91-5.274-.004-8.547l.693-2.558.748-2.645.737-2.691q.9-3.284 1.826-6.559"/><path fill="#E8E7E4" d="M853 515h1v10l4.375-.187c2.46-.106 2.46-.106 4.625.187l2 3h-13z"/><path fill="#010102" d="M424 691h20v1h-19l1 5 15 1v1l-17 1z"/><path fill="#F0A02F" d="M758 681h9c-1.373 3.699-3.064 6.951-5.125 10.313l-1.633 2.675L759 696l-1-3 1.438-2.375c1.723-2.896 2.098-4.32 1.562-7.625z"/><path fill="#F9F8F4" d="M438 551h2c1.771 6.98 3.475 13.962 5 21l-3-1c-1.168-2.95-1.168-2.95-2.187-6.687l-1.043-3.7c-.712-3.341-.921-6.213-.77-9.613"/><path fill="#0A1015" d="M350 262v2c-1.434 1.156-1.434 1.156-3.437 2.5-5.288 3.802-9.353 8.569-13.563 13.5l-2-1c12.553-17 12.553-17 19-17"/><path fill="#F4A42F" d="M386 803c5.145.994 8.97 4.058 13.25 6.938l2.547 1.67 2.406 1.607 2.208 1.472L408 816v2l-12-6v-2l-2.187-.687c-3.345-1.561-5.329-3.616-7.813-6.313"/><path fill="#07091C" d="M266 342c1.086 3.26.913 5.105-.215 8.328l-.83 2.422-.892 2.5-.881 2.547A735 735 0 0 1 261 364h-2c1.263-7.812 3.456-14.912 7-22"/><path fill="#0B1015" d="M340.695 312.805q2.216.02 4.43.07l2.285.027c1.864.024 3.727.06 5.59.098-2.658 2.658-4.113 2.256-7.812 2.375-4.921.313-7.747.815-11.188 4.625.794-5.029 1.169-6.903 6.695-7.195"/><path fill="#090A1B" d="M465 144c-5.62 5.375-13.807 5.226-21.129 5.07L442 149c3.349-1.879 6.643-2.764 10.375-3.625 1.1-.26 2.202-.52 3.336-.79 3.177-.565 6.07-.692 9.289-.585"/><path fill="#0A0B0B" d="M707 545h2l4 10h2l1 10c-3.126-3.126-4.533-6.013-6.187-10l-.827-1.906C707.775 550.228 707 548.143 707 545"/><path fill="#DCD9D5" d="M215 522c8.717-.144 17.313.28 26 1v1l-25 1z"/><path fill="#31445A" d="M296 364h2q-1.066 3.913-2.14 7.824a406 406 0 0 0-1.657 6.32l-.765 2.981-.692 2.758C292 386 292 386 290 387c.428-8.274 3.044-15.333 6-23"/><path fill="#FBFAF5" d="M476 690h1v10c7.216-.611 7.216-.611 14-3-1.875 3.875-1.875 3.875-3 5-1.849.234-3.705.413-5.562.563l-3.067.253L477 703c-1.322-2.645-1.097-4.678-1.062-7.625l.027-3.04z"/><path fill="#FDFDF9" d="M863 661c-2 2-2 2-5.738 2.23q-2.288-.006-4.574-.043l-2.303-.001c-3.92-.031-7.559-.231-11.385-1.186v-1c3.437-.197 6.875-.38 10.313-.562l2.958-.17 2.842-.147 2.619-.143C860 660 860 660 863 661"/><path fill="#262626" d="m674 547 2 1c.625 2.563.625 2.563 1 5h-2v30h-1z"/><path fill="#0A0A0D" d="M874 474c4.219 2.218 6.82 4.809 9.813 8.5l2.394 2.906C888 488 888 488 888 491h-2c-1.55-2.012-1.55-2.012-3.312-4.687-2.04-3.017-3.977-5.808-6.625-8.313L874 476z"/><path fill="#0A0F15" d="M390 251c-3.907 2.386-8.123 2.927-12.562 3.688l-2.327.431c-5.737 1.006-5.737 1.006-9.111-.119 6.76-4.507 16.09-4.264 24-4"/><path fill="#030407" d="m357.313 676.625 3.488-.148c3.199.523 3.199.523 5.617 3.046L368 682l-2 3-2-5-13-1-1 2c0-5.301 2.599-4.239 7.313-4.375"/><path fill="#F9F8F4" d="m185.188 657.938 3.855.027L192 658l-1 3h-16v-2c3.56-1.187 6.438-1.097 10.188-1.062"/><path fill="#F2F0EC" d="m300 578 28 1 1 2-2.247-.016q-5.032-.029-10.065-.047l-3.538-.025-3.388-.01-3.127-.016c-2.744-.002-2.744-.002-5.635 1.114z"/><path fill="#0B0F15" d="M667 364h2c.335 7.434.139 13.199-3 20h-2l.402-1.836c1.274-6.041 2.1-12.011 2.598-18.164"/><path fill="#1F1722" d="M812 347h1c.2 3.145.383 6.291.563 9.438l.17 2.662c.32 5.78.055 11.163-.733 16.9-2-2-2-2-2.135-4.706l.158-3.396.157-3.671.195-3.852.172-3.875q.213-4.75.453-9.5"/><path fill="#06081C" d="M368 169v2q-3.591 1.01-7.187 2l-2.042.578c-3.677 1.005-6.956 1.659-10.771 1.422l1-2a121 121 0 0 1 7.875-2.125c.733-.182 1.467-.364 2.223-.55C362.13 169.59 364.869 169 368 169"/><path fill="#E3962F" d="M541.23 162.46c.803.143 1.605.285 2.432.43l2.525.485 2.561.46c2.086.378 4.17.77 6.252 1.165l-1 2a148.6 148.6 0 0 1-20-3c3.308-2.205 3.586-2.211 7.23-1.54"/><path fill="#07071C" d="M567 843a806 806 0 0 1-8.25 4.563l-2.355 1.326-2.286 1.24-2.094 1.158c-2.416.855-3.636.555-6.015-.287a3847 3847 0 0 1 7.313-3.937l2.091-1.131 2.022-1.084 1.856-1c3.15-1.555 4.301-1.987 7.718-.848"/><path fill="#F1A330" d="M259 685c3.103 2.069 3.781 3.057 5.438 6.25 1.5 2.842 3.027 5.479 4.937 8.063C271 702 271 702 270.602 704.168L270 706c-1.844-2.93-3.673-5.87-5.5-8.812l-1.59-2.526-1.504-2.432-1.396-2.237C259 688 259 688 259 685"/><path fill="#3E3F3E" d="m202.041 545.978 2.65.143 2.862.147 3.01.17 3.021.158q3.708.195 7.416.404v1c-11.346.64-22.632 1.17-34 1v-1l2.59-.184 3.347-.253 3.34-.247c2.765-.32 3.178-1.31 5.764-1.338"/><path fill="#0A0F14" d="M289 376h2c-.415 6.186-1.652 11.286-4 17a492 492 0 0 0-2 6c-1.064-3.246-.91-5.274-.004-8.547l.693-2.558.748-2.645.737-2.691q.9-3.284 1.826-6.559"/><path fill="#0A0A1E" d="M747 322h2c5.556 12.485 5.556 12.485 6 19-3.265-1.632-3.863-5.125-5.125-8.375l-.84-2.078C747.855 327.559 747 325.24 747 322"/><path fill="#314459" d="M613 284h1v21l-3-1a748 748 0 0 1-.125-7.187l-.05-2.042c-.04-4.06.375-7.121 2.175-10.771"/><path fill="#0C1218" d="M598 259h2c-1.3 2.9-2.433 5.086-5 7-3.137.293-3.137.293-6.687.188l-3.575-.083L582 266l-1-2 2.484-.148 3.266-.227c1.067-.07 2.135-.14 3.234-.21 2.844-.391 4.627-.864 7.016-2.415z"/><path fill="#FAA92E" d="m694 751 1 2-1.355 1.137c-5.4 4.571-10.309 9.242-14.645 14.863l-2-1c12.593-14.796 12.593-14.796 17-17"/><path fill="#F9F8F5" d="M325 688h2c.677 2.038 1.341 4.08 2 6.125l1.125 3.445c.844 3.309 1.04 6.035.875 9.43-2.587-2.587-3.066-4.883-4.125-8.375l-1.07-3.46C325 692 325 692 325 688"/><path fill="#2A2A2A" d="m824.668 502.805 2.705.02 2.814.05 2.85.027q3.482.036 6.963.098v1l-2.93.078c-8.12.354-14.691 1.19-22.07 4.922 2.097-4.839 4.45-6.262 9.668-6.195"/><path fill="#33465B" d="m345.25 309.875 2.703.055L350 310v2l-2.23.043c-6.602.133-6.602.133-11.957 3.52L334 318l-3-1c4.644-4.902 7.404-7.305 14.25-7.125"/><path fill="#DE9330" d="M367 173v1c-3.12.727-6.247 1.428-9.375 2.125l-2.695.629-2.578.566-2.38.54L348 178l-2-2a632 632 0 0 1 7.125-2.062l2.016-.604c4.317-1.206 7.507-1.412 11.859-.334"/><path fill="#DF9630" d="M515 158c6.142.585 12.007 1.54 18 3v2c-6.142-.585-12.007-1.54-18-3z"/><path fill="#F2A12E" d="M377 817c2.903 1.355 5.346 2.914 7.875 4.875A162 162 0 0 0 395 829l-2 2c-2.674-1.948-5.338-3.91-8-5.875l-2.312-1.684-2.188-1.62-2.031-1.492L377 819z"/><path fill="#F6A62F" d="M306 754c3.039 1.346 5.004 2.804 7.234 5.258l1.739 1.894 1.777 1.973 1.824 1.996A1035 1035 0 0 1 323 770c-3 0-3 0-5.594-2.23a265 265 0 0 1-2.906-2.957l-1.473-1.463c-2.854-2.898-5.092-5.774-7.027-9.35"/><path fill="#FCFBF7" d="M477 687c8.898-.778 8.898-.778 13.188 2.25C492 692 492 692 491.813 694.313L491 696l-1.375-2.437c-1.372-2.652-1.372-2.652-3.625-3.563-1.537-.225-3.08-.408-4.625-.562l-2.477-.254L477 689z"/><path fill="#07090B" d="M324 551h1c1.723 7.093 2.25 13.71 2 21-2.414-3.622-2.707-6.85-3.187-11.062l-.288-2.221c-.656-5.455-.656-5.455.475-7.717"/><path fill="#DF9430" d="M785 402c2.527 3.771 1.934 6.637 1.25 11l-.547 3.688c-.598 2.819-1.253 4.854-2.703 7.312-.94-3.039-.999-5.207-.441-8.328l.42-2.422.458-2.5.448-2.547c.364-2.069.739-4.136 1.115-6.203"/><path fill="#030507" d="m525 730 3.375.938c4.83 1.22 9.668 1.676 14.625 2.062-2.363 2.363-2.906 2.296-6.125 2.313-4.833-.087-8.469-1.39-12.875-3.313z"/><path fill="#F2F1EC" d="m397 639 23 2v1h-24z"/><path fill="#0B0D0F" d="M261 596h2c-.115 1.73-.243 3.459-.375 5.188-.07.962-.14 1.925-.21 2.917-.422 2.941-1.102 5.235-2.415 7.895l-2 1q.465-3.126.938-6.25l.527-3.516c.408-2.465.874-4.828 1.535-7.234"/><path fill="#32465A" d="M313.563 327.938 317 328v6l-3-1-3 2-2-6c1-1 1-1 4.563-1.062"/><path fill="#E99A2E" d="M688 253c3.375.688 3.375.688 7 2 1.25 2.313 1.25 2.313 2 5a157 157 0 0 0 3 5h-3a373 373 0 0 1-4-6 259 259 0 0 0-5-4z"/><path fill="#E5962F" d="M460 147v2c-6.8 1.904-12.92 3.409-20 3 3.439-2.292 6.584-2.887 10.563-3.625l2.076-.406C457.675 147 457.675 147 460 147"/><path fill="#060709" d="M495 680c4.235.806 5.53 2.46 8 6 2.173 3.368 2.18 6.031 2 10h-2l-.625-3.5c-1.23-5.066-4.056-8.576-7.375-12.5"/><path fill="#DAD9D4" d="M382 679c2.82-.293 2.82-.293 6.125-.187l3.32.082L394 679l-1 3v-2h-10l-1 9-3 1c.75-7.625.75-7.625 3-11"/><path fill="#EEA12E" d="m579 857 3 1c-3.246 2.56-6.67 4.625-10.25 6.688l-3.266 1.886L566 868l-1-3 2.3-1.242 3.013-1.633 2.988-1.617c2.795-1.515 2.795-1.515 5.699-3.508"/><path fill="#0A091C" d="m666 804 2 1c-2.751 2.852-5.603 5.344-8.75 7.75l-2.422 1.86L655 816l-2-1c3.97-4.218 8.308-7.612 13-11"/><path fill="#EBEAE7" d="m781 636 1.625 2.063c2.726 3.37 5.54 6.658 8.375 9.937l-1 2c-4.237-3.274-7.396-6.208-10-11z"/><path fill="#FAF8F4" d="M507 559h1c-.548 5.21-1.188 10.068-3 15l-3 1q.676-3.44 1.375-6.875l.773-3.867C505 561 505 561 507 559"/><path fill="#DDDBD7" d="m326 552 2 1c1.182 3.547.893 5.975.563 9.688l-.31 3.574L328 569h-1q-.54-3.967-1.062-7.937l-.315-2.288c-.25-1.92-.44-3.847-.623-5.775z"/><path fill="#DE9631" d="m239 452 1 2c2.025.43 2.025.43 4.375.563 2.82.225 4.912.533 7.625 1.437l1-2-1 5c-5.361-1.59-10.708-3.19-16-5z"/><path fill="#0B1015" d="M300 346c1.723 4.085.073 7.37-1.437 11.25l-.737 1.969A516 516 0 0 1 296 364h-2c1.59-6.234 3.276-12.163 6-18"/><path fill="#EEA12F" d="M676 231c5.212-.718 8.206 1.683 12.313 4.5l1.955 1.3A542 542 0 0 1 695 240l-3 1a75 75 0 0 1-6.5-3.812l-1.762-1.12A449 449 0 0 1 676 231"/><path fill="#06091C" d="M325 181v2a556 556 0 0 1-5.625 2l-3.164 1.125c-3.229.88-5.883 1.035-9.211.875 2.6-2.6 4.927-3.068 8.438-4.125l3.496-1.07C322 181 322 181 325 181"/><path fill="#09091C" d="M466 872c10.558 2.89 10.558 2.89 15 6l-1 2-15-6z"/><path fill="#F7A62F" d="M328 751c3.873 1.576 6.247 4.077 9.125 7.063 3.116 3.402 3.116 3.402 6.875 5.937v2c-6.67-3.094-11.573-8.232-16-14z"/><path fill="#EEEDE9" d="m234 637 3 1c-3.502 5.117-6.586 8.906-12 12 1.349-2.958 2.896-5.208 5.063-7.625 1.6-1.793 2.86-3.222 3.937-5.375"/><path fill="#F9F9F6" d="M494 606h1c-.51 6.437-1.73 11.96-4 18h-2q.965-3.938 1.938-7.875l.552-2.262c1.397-5.636 1.397-5.636 2.51-7.863"/><path fill="#161616" d="M513 541h2v12l-3 1c-1.073-3.272-.893-5.43-.062-8.75l.59-2.422z"/><path fill="#06071B" d="M231 453c6.401.466 11.268 2.147 17 5l-1 2q-3.722-1.176-7.437-2.375l-2.143-.672c-1.826-.594-3.626-1.268-5.42-1.953z"/><path fill="#0B1015" d="m701 347 1 3c-1.293 1.938-1.293 1.938-3.187 4l-1.856 2.063c-4.916 4.866-4.916 4.866-8.707 5.125L686 361c2-2 2-2 5.25-3.625 4.479-2.46 6.974-6.185 9.75-10.375"/><path fill="#05071C" d="M295 275c1 3 1 3-.652 6.574a324 324 0 0 1-2.286 4.113l-1.17 2.127A701 701 0 0 1 288 293c-1-3-1-3 .398-6.32a274 274 0 0 1 1.977-3.805l1-1.957c2.442-4.735 2.442-4.735 3.625-5.918"/><path fill="#1F1720" d="M375 193h-3v2c-8.429 2.286-8.429 2.286-13 2v-2c1.913-.533 3.83-1.05 5.75-1.562l3.234-.88c2.86-.529 4.332-.542 7.016.442"/><path fill="#E3962E" d="m610.188 178.25 3.792.766L617 180l1 3q-3.626-.677-7.25-1.375l-2.066-.383c-3.509-.681-6.594-1.41-9.684-3.242 3.931-1.466 7.165-.6 11.188.25"/><path fill="#070919" d="M505 888h16c-5.09 3.818-5.09 3.818-9 4-2.473-.809-4.652-1.85-7-3z"/><path fill="#F1A12E" d="M290 733c3.933 1.311 5.368 3.825 7.688 7.063.415.567.83 1.135 1.26 1.72q1.534 2.102 3.052 4.217l-2 2q-2.508-3.18-5-6.375l-1.445-1.828C290 735.227 290 735.227 290 733"/><path fill="#1E2020" d="M322 536h1c2.48 11.522 2.48 11.522 1 17l-2-1c-.45-2.328-.45-2.328-.687-5.25l-.262-2.89c-.05-2.794.292-5.153.949-7.86"/><path fill="#040507" d="M493 494h1c-.416 6.195-1.603 11.267-4 17h-1c.55-6.048 1.904-11.306 4-17"/><path fill="#F4F4F0" d="M226 473c3.36 1.431 5.318 3.177 7.688 5.938l1.824 2.09C237 483 237 483 238 486h-3c-1.246-1.645-1.246-1.645-2.437-3.812-1.86-3.195-3.454-5.116-6.563-7.188z"/><path fill="#E8E7E4" d="M164 469v2l-11 1v2l-5 1v-2c1.91-.868 3.829-1.719 5.75-2.562l3.234-1.442c3-.99 4.15-1.158 7.016.004"/><path fill="#090B1C" d="M219 443c2 3 2 3 3 6 1.865 1.018 1.865 1.018 4.063 1.688l2.222.761L230 452v2q-2.19-.425-4.375-.875l-2.46-.492C221 452 221 452 219 450c-.125-3.625-.125-3.625 0-7"/><path fill="#32455B" d="m380.25 280.938 2.703.027L385 281l-1 2c-1.82.379-1.82.379-4.125.563-3.987.357-7.916.847-11.875 1.437 3.551-4.084 7.03-4.131 12.25-4.062"/><path fill="#09091D" d="M259 234c-3.03 2.448-6.075 4.095-9.625 5.688l-2.914 1.324C244 242 244 242 242 242v-2q2.836-1.517 5.688-3l3.199-1.687c3.035-1.28 4.873-1.602 8.113-1.313"/><path fill="#06081B" d="m484 140-1 2c-5.524 1.745-10.229 2.206-16 2 5.225-3.484 10.813-4.31 17-4"/><path fill="#DF962F" d="M322 771c3.452 1.477 5.65 3.438 8.25 6.125l2.14 2.195L334 781l-2 2a1072 1072 0 0 1-5-4.875l-2.812-2.742C322 773 322 773 322 771"/><path fill="#0C0C0E" d="m523 705 1.672.867c2.487 1.21 5.005 2.243 7.578 3.258l2.703 1.07L537 711v2c-5.415-.433-8.758-1.566-13-5z"/><path fill="#010204" d="M478 690h7v2h-5v6h5v1h-7z"/><path fill="#1C1D1E" d="M327 569c2.094 3.402 2.18 6.053 2 10h-8v-3l5-1z"/><path fill="#DFDEDA" d="m289 468 1 2 2 1a417 417 0 0 1-1.312 4.75l-.739 2.672c-.97 2.636-2.16 4.432-3.949 6.578.747-5.724 1.829-11.349 3-17"/><path fill="#080A1B" d="M781 422q.039 2.188.063 4.375l.035 2.46C781 431 781 431 780 433h-3c-.368-7.488-.368-7.488 1.438-10 1.562-1 1.562-1 2.562-1"/><path fill="#0B1015" d="m620 384 2 2.188c2.805 2.845 5.966 4.735 9.426 6.699L633 394v2c-4.323-.5-6.3-1.777-9.312-4.875l-2.114-2.117C620 387 620 387 620 384"/><path fill="#32465B" d="M665 262c4.457.499 6.577 2.02 9.813 5.063l2.394 2.222L679 271l-1 2q-2.409-1.904-4.812-3.812l-2.708-2.145c-1.95-1.607-3.743-3.213-5.48-5.043"/><path fill="#DE9331" d="m663 193 3.75.875L670 195l1 3a893 893 0 0 1-5.812-1.375l-3.27-.773C659 195 659 195 656 193c2.746-1.373 4.028-.727 7 0"/><path fill="#0C0E11" d="M700 721c-.023 2.383-.023 2.383-.375 5.125l-.336 2.758L699 731h-1v-10h-19v-1c3.124-.225 6.25-.427 9.375-.625l2.695-.195 2.578-.157 2.38-.158C698 719 698 719 700 721"/><path fill="#EFEDE8" d="M440 700h1v10h-8l1-2h4l-1-6h2z"/><path fill="#000002" d="m677 690 19 1v1h-17v5l-2 1z"/><path fill="#07071C" d="M281 681c3 1 3 1 4.824 4.16a280 280 0 0 1 1.863 3.903l.971 2.01c.79 1.638 1.567 3.282 2.342 4.927l-2 1z"/><path fill="#FDFCF8" d="M351 680h11v2l-9 1-1 4h-2z"/><path fill="#FCFBF6" d="M322 680h10l1 2-7 1-1 4c-2.36-2.36-2.491-3.779-3-7"/><path fill="#050609" d="M713 644c3 1 3 1 5 4 2.647.8 2.647.8 5.625 1.188l3.04.48c.77.11 1.54.22 2.335.332v1c-11.091.785-11.091.785-14.75-2.375C713 646 713 646 713 644"/><path fill="#32465C" d="m669 362 3 1c2.226.225 4.456.408 6.688.563l3.574.253L685 364c-2 2-2 2-4.531 2.16l-2.969-.098c-3.9-.233-3.9-.233-7.5.938z"/><path fill="#090E15" d="M410 252c3.438 1.528 6.19 3.502 9 6v2l4 2-3 1a923 923 0 0 1-5-4.375l-2.812-2.46L410 254z"/><path fill="#F3A32E" d="M539 877v2a1834 1834 0 0 1-6.375 3l-3.586 1.688C526 885 526 885 524 885v-2l5-1v-2q1.935-.755 3.875-1.5l2.18-.844C537 877 537 877 539 877"/><path fill="#FDFCF8" d="M348 722h2l-1 9h-10c2.918-1.945 4.625-2.453 8-3z"/><path fill="#0B0C0D" d="m534 693 1.438 1.313c3.595 2.367 7.462 3.452 11.562 4.687l-1 2a478 478 0 0 1-4.875-.875l-2.742-.492C536 699 536 699 534 697z"/><path fill="#333332" d="M833 586c6.115-.097 11.933.23 18 1v1c-6.213.73-11.841 1.232-18 0z"/><path fill="#0A0F14" d="M662 385h2c-1.166 4.955-4.161 7.027-8.027 9.96L654 396l-3-1 1.898-1.426 2.477-1.887 2.46-1.863c2.363-1.819 2.363-1.819 4.165-4.824"/><path fill="#E59D30" d="m648 380 1 3c-3.315 2.03-5.432 2.127-9.25 1.625l-2.703-.336L635 384v-2l1.828.07 2.422.055 2.39.07c2.567-.212 4.152-.908 6.36-2.195"/><path fill="#E69A2E" d="M702 740c.813 1.688.813 1.688 1 4-2.375 2.625-2.375 2.625-5 5l-1 2c-2.562.625-2.562.625-5 1l1.172-1.355c3.012-3.497 5.971-7.02 8.828-10.645"/><path fill="#EDE7DF" d="M481.625 706.875 485 707v3h-7v11h-1a499 499 0 0 1-.625-5.875l-.352-3.305L476 709c2-2 2-2 5.625-2.125"/><path fill="#070809" d="M345 696c1.188 3.43.802 5.378-.437 8.75l-.872 2.422L343 709c-2.152-3.228-2.2-4.284-2-8h2z"/><path fill="#F1F0EB" d="m202 656 1 3c-4.053.982-7.839 1.082-12 1 2-3 2-3 3.813-3.687 2.423-.347 4.742-.38 7.187-.313"/><path fill="#F0EFEB" d="M133 635c2.08 2.08 2.608 3.282 3.563 6 .736 2.077 1.45 4.028 2.437 6l-3 1a265 265 0 0 1-2.062-4.25l-1.16-2.39c-.864-2.62-.708-3.809.222-6.36"/><path fill="#E2E1DE" d="M883 489h3a336 336 0 0 1 2.063 4.75l1.16 2.672c.823 2.73.754 3.947-.223 6.578-2.345-4.584-4.372-9.117-6-14"/><path fill="#060709" d="M498 477c1.24 3.718.57 5.439-.437 9.188l-.872 3.292L496 492h-2c.497-5.661 1.545-9.877 4-15"/><path fill="#E09530" d="M749 330c2.381 2.381 3.002 4.339 4.125 7.5l1.07 2.969C755 343 755 343 755 345c-3-1-3-1-3.95-2.89-2.46-7.867-2.46-7.867-2.05-12.11"/><path fill="#04071B" d="M560 170c5.93-.379 10.472.894 16 3-3.484 1.167-6.102.853-9.687.188l-2.95-.52L561 172z"/><path fill="#08081E" d="M439 832c3.542 1.366 6.926 2.91 10.313 4.625l2.675 1.352L454 839c-1.64.684-1.64.684-4 1-2.797-1.215-2.797-1.215-5.75-2.937l-2.984-1.715L439 834z"/><path fill="#080A1B" d="M690 784v3l-3 1v2c-4.47 4-4.47 4-7 4 2.083-4.86 5.14-7.917 10-10"/><path fill="#DAD7D1" d="m368 702 1 2h3l1 4 2-3v6c-2.375-.187-2.375-.187-5-1-1.597-2.89-2-4.69-2-8"/><path fill="#06070A" d="M252 639h2c.212 5.192-.409 9.127-2 14h-2z"/><path fill="#E6E4E0" d="M489 629c1 2 1 2 .441 4.164l-.878 2.461-.872 2.477L487 640l-4-2c1.838-3.151 3.76-6.12 6-9"/><path fill="#1E1821" d="m277 361 3 1c-.422 1.65-.863 3.295-1.312 4.938l-.739 2.777L277 372l-3 1z"/><path fill="#F7A52C" d="m516 157-1 2-17 1v-1l1.898-.402 2.477-.536 2.46-.527c4.313-1.066 6.538-1.306 11.165-.535"/><path fill="#F9A730" d="M449 840c5.48 1.545 10.114 4.155 15 7-3 1-3 1-5.812-.25L455 845l-3.375-1.687L449 842z"/><path fill="#EFA22F" d="m626 808 2 1c-2.259 3.512-4.427 4.992-8.187 6.75l-2.731 1.297L615 818c1.265-3.796 2.782-4.487 6.063-6.687l2.785-1.887z"/><path fill="#090A1C" d="m749 711 2 1a952 952 0 0 1-2.812 4.313l-1.583 2.425A32.8 32.8 0 0 1 742 724c.34-5.442 3.703-8.937 7-13"/><path fill="#DAD9D6" d="m553 688-3 4-13-2v-1a98.4 98.4 0 0 1 16-1"/><path fill="#F9F8F4" d="m217 651 2 1c-2.536 3.1-5.152 4.058-9 5-2.191-.453-2.191-.453-4-1q2.682-1.295 5.375-2.562l3.023-1.442z"/><path fill="#F1F0ED" d="m884 645 1 3c-1.434 2.043-1.434 2.043-3.437 4.188l-1.997 2.167L878 656l-3-1z"/><path fill="#EBEAE5" d="M348 488h1q.546 2.371 1.063 4.75l.597 2.672c.338 2.565.152 4.149-.66 6.578h-2q-.292-2.655-.562-5.312l-.317-2.989C347 491 347 491 348 488"/><path fill="#080A0C" d="M685 490c2.705 4.058 5 8.049 5 13h-2a265 265 0 0 1-2.062-4.25l-1.16-2.39c-.864-2.62-.708-3.809.222-6.36"/><path fill="#EBEAE7" d="m783 480 2 1-3 6h-2l-1 4h-2c1.258-4.508 2.904-7.491 6-11"/><path fill="#DF932F" d="M767 391c3.375 4.5 3.375 4.5 3.688 8.75l.199 2.422L771 404l-3-1z"/><path fill="#C37D2F" d="M791 341h1l1 16h-2l-1 4z"/><path fill="#31455A" d="M680 274c4.3 1.592 6.397 4.355 9 8l-1 3c-2.929-2.824-5.584-5.722-8-9z"/><path fill="#09091C" d="M746 226c4.973.497 8.638 1.553 13 4v2c-4.86-.607-8.74-2.728-13-5z"/><path fill="#08091E" d="M302 714a91 91 0 0 1 4 4v2h2l3 6c-4.412-1.47-6.851-5.046-9-9z"/><path fill="#1F1F1F" d="M487 691h2c.188 3.375.188 3.375 0 7-3.089 2.06-3.71 2.239-7.187 2.125L478 700v-1h7v-2h2z"/><path fill="#EEEDE9" d="M814 616h2l1.25 2.375c2.199 3.298 3.981 3.704 7.75 4.625l-2 2c-3.176-.11-4.312-1.27-6.75-3.375C814 619 814 619 814 616"/><path fill="#1F2428" d="m435 557 1 3h2l1-3 1 6-3-1-1 9h-1z"/><path fill="#FBFBF7" d="M324 540c2.737 2.737 3.162 5.26 4 9-.375 2.438-.375 2.438-1 4h-2z"/><path fill="#E8E7E4" d="M697 524c1.79 2.686 2.66 4.663 3.625 7.688.26.808.52 1.616.79 2.449.192.615.386 1.23.585 1.863l-2 1a265 265 0 0 1-2.062-4.25l-1.16-2.39c-.864-2.62-.708-3.809.222-6.36"/><path fill="#FBFBF7" d="M288 481c1.218 2.436 1.018 3.685.75 6.375l-.203 2.336c-.64 2.682-1.777 4.205-3.547 6.289q.174-2.625.375-5.25c.07-.975.14-1.95.21-2.953.4-2.693 1.05-4.467 2.415-6.797"/><path fill="#0C0D0F" d="M234 477c5.67 5.371 5.67 5.371 7 9v3h-2a519 519 0 0 1-2.5-4.312l-1.406-2.426C234 480 234 480 234 477"/><path fill="#EAE7DE" d="M323 467h22v3l-3-1a87 87 0 0 0-4.45-.316l-2.568-.127-2.67-.12-2.705-.13q-3.303-.159-6.607-.307z"/><path fill="#08091C" d="M256 370h1c.363 5.802-.743 9.64-3 15h-1c.445-5.273 1.084-10.018 3-15"/><path fill="#040618" d="M589 325h2l-1 14c-2.105-3.158-2.253-3.954-2.187-7.562l.019-2.38C588 327 588 327 589 325"/><path fill="#EB9B30" d="M735 298c1.79 2.686 2.66 4.663 3.625 7.688.26.808.52 1.616.79 2.449.192.615.386 1.23.585 1.863l-2 1a265 265 0 0 1-2.062-4.25l-1.16-2.39c-.864-2.62-.708-3.809.222-6.36"/><path fill="#EEA031" d="m332 235 1 3h-3l-.625 1.875c-1.923 2.972-4.04 3.255-7.375 4.125 2.875-3.98 5.821-6.436 10-9m-12 9 2 1Z"/><path fill="#E2972F" d="M656 237c1.418.06 2.834.15 4.25.25l2.39.14C665 238 665 238 669 242l-13-3z"/><path fill="#09091A" d="m415.75 180.875 2.422.055L420 181c-4.826 3.218-10.198 4.363-16 4 4.138-2.759 6.717-4.273 11.75-4.125"/><path fill="#07091C" d="M343 176c-1 2-1 2-4.187 3.125-3.45.792-6.297 1.046-9.813.875 4.137-4.137 8.34-4.222 14-4"/><path fill="#FAF9F3" d="m495 728-1 3-15-1v-1q2.874-.253 5.75-.5l3.234-.281c2.334-.17 4.676-.219 7.016-.219"/><path fill="#060708" d="m525 715 1.875.813c4.305 1.635 8.705 2.9 13.125 4.187v1c-6.463.454-9.61-.406-15-4z"/><path fill="#030507" d="M557 707c2.048 1.963 2.95 3.428 3.2 6.27-.011 2.25-.07 4.484-.2 6.73h-2a987 987 0 0 1-1.062-5.937l-.598-3.34L556 708z"/><path fill="#F9F8F4" d="m499 688 3 2c.518 5.437.518 5.437 0 8l-3 3z"/><path fill="#0B0C0E" d="M133 645c3.303 1.101 3.785 1.69 5.688 4.438l1.324 1.87C141 653 141 653 141 655c-4.208-1.503-5.803-4.233-8-8z"/><path fill="#DBD9D6" d="m265 649 12 1v1l-14 1z"/><path fill="#EAE8E3" d="M375 626h1q.546 2.371 1.063 4.75l.597 2.672c.338 2.565.152 4.149-.66 6.578-2.353-2.353-2.365-3.215-2.687-6.437l-.262-2.372C374 629 374 629 375 626"/><path fill="#EDECE7" d="M690 508c2.228 2.228 2.692 3.658 3.625 6.625.26.817.52 1.635.79 2.477L695 519c-1.918-.781-1.918-.781-4-2-1.312-3.5-1.312-3.5-2-7z"/><path fill="#EDEBE5" d="M849 503c3 3.207 3 3.207 3 6-3-1-3-1-4.312-2.5-2.369-2.105-4.603-2.157-7.688-2.5 3.32-2.09 5.287-2.333 9-1"/><path fill="#09090B" d="M673 467h2a408 408 0 0 1 2.563 4.813l1.44 2.707C680 477 680 477 679 480c-2.408-2.408-3.008-4.422-4.125-7.625l-1.07-3.04z"/><path fill="#304357" d="M718 444v2h-15v-1c5.307-1.427 9.539-2.4 15-1"/><path fill="#DC8D30" d="M214 390h1c.756 5.235 1.206 9.773 0 15h-1c-.953-4.767-1.164-9.16-1-14z"/><path fill="#31455A" d="M614 359h2l-.937 3c-1.147 3.977-1.63 7.888-2.063 12h-1q-.079-3.187-.125-6.375l-.07-3.586C612 361 612 361 614 359"/><path fill="#090A1D" d="M312 249h2c-1.489 4.601-3.746 7.502-7 11h-2c1.489-4.601 3.746-7.502 7-11"/><path fill="#07071C" d="M760 232c4.86.607 8.74 2.728 13 5v2c-4.23-1.31-8.127-2.839-12-5z"/><path fill="#F0A32F" d="m593 224 3 1-5 2v2c-1.812 1.688-1.812 1.688-4 3l-3-1a1126 1126 0 0 1 3.375-2.937l1.898-1.653C591 225 591 225 593 224"/><path fill="#09091C" d="M599 851a507 507 0 0 1-4.312 3l-2.426 1.688C590 857 590 857 587 857v-2q2.147-1.298 4.313-2.562l2.425-1.442C596 850 596 850 599 851"/><path fill="#02041E" d="M320 772c3.452 1.477 5.65 3.438 8.25 6.125l2.14 2.195L332 782l-2 2q-2.505-2.716-5-5.437l-1.445-1.565C320 773.113 320 773.113 320 772"/><path fill="#08091E" d="M322 739c3.26 3.17 6.222 6.4 9 10-3 0-3 0-4.605-1.426l-1.582-1.886-1.606-1.864C322 742 322 742 322 739"/><path fill="#FBFBF7" d="m549 728-1 3c-2.75.917-4.36 1.109-7.187 1.063L537 732l1-2c1.996-.633 1.996-.633 4.438-1.125l2.433-.508C547 728 547 728 549 728"/><path fill="#1A1B1D" d="m355 706 2 2c-.242 2.383-.242 2.383-.875 5.125l-.617 2.758L355 718l-2-1c.875-7.625.875-7.625 2-11"/><path fill="#0D0E10" d="m195.688 659.813 2.449.082L200 660c-2.863 2.863-4.659 2.994-8.687 3.063L188 663c2.419-2.983 3.898-3.352 7.688-3.187"/><path fill="#EAE7E1" d="m297 611 3 1c1.664.348 3.33.684 5 1v1h-8v7c-2-3-2-3-1.687-6.125C296 612 296 612 297 611"/><path fill="#060709" d="M356 516h1l1 13-2-1c-.45-2.469-.45-2.469-.687-5.5l-.262-3.031L355 517z"/><path fill="#0D0E10" d="m317 518 3 1v10c-2.393-2.393-2.442-3.731-3-7l-1-3z"/><path fill="#090A0C" d="M135 483h2a500 500 0 0 1-2 6l-.937 2.813L133 494l-3 1q.68-2.159 1.375-4.312l.773-2.426C133 486 133 486 135 483"/><path fill="#231A22" d="m801 438 2 2c-.033 2.729-.564 5.297-1 8-3 1-3 1-5.187.063L795 447h5z"/><path fill="#05071A" d="M786 381h1c.08 2.124.14 4.25.188 6.375l.105 3.586L787 394l-3 2c.525-5.03 1.106-10.019 2-15"/><path fill="#1E1720" d="m614 343 2 3c-2.417 1.95-4.187 3.008-7.336 2.977A107 107 0 0 1 602 348v-1l2.117-.367 2.758-.508 2.742-.492c2.548-.463 2.548-.463 4.383-2.633"/><path fill="#06081C" d="M663 242c5.635-.55 8.39 1.05 13 4v2l-2-.812c-3.65-1.445-7.322-2.817-11-4.188z"/><path fill="#080A1C" d="m501.75 160.938 2.422.027L506 161l-1 2c-2.215.484-2.215.484-4.937.75l-2.715.297C495 164 495 164 493 162c2.995-.872 5.636-1.108 8.75-1.062"/><path fill="#0A0A1D" d="m632 801 3 1a496 496 0 0 1-3.312 2.938l-1.864 1.652C628 808 628 808 625 809v-3c2.938-2.125 2.938-2.125 6-4z"/><path fill="#EC9D2F" d="m647 792 1 3c-4.297 4.004-4.297 4.004-6 5l-4-1z"/><path fill="#05081E" d="M343 762q1.943 1.398 3.875 2.813l2.18 1.582C351 768 351 768 353 771c-3 0-3 0-4.824-1.46l-1.863-1.915-1.887-1.898C343 764 343 764 343 762"/><path fill="#F1A22F" d="M296 710c3.303 1.101 3.785 1.69 5.688 4.438l1.324 1.87C304 718 304 718 304 720c-4.208-1.503-5.803-4.233-8-8z"/><path fill="#E7E6E3" d="m527 705 1.688.875c2.34 1.185 2.34 1.185 5 2.125 2.312 1 2.312 1 3.312 3-3.719-.507-6.735-1.116-10-3z"/><path fill="#E5E4E0" d="M533 696c7.429 3.143 7.429 3.143 11 5-3.817 1.468-6.329.596-10-1l-2-3z"/><path fill="#F9F8F5" d="M334 685h2c1.591 4.177 2.213 7.532 2 12l-2-1c-.633-2.504-.633-2.504-1.125-5.562l-.508-3.067z"/><path fill="#E1DCD9" d="m607 683 .375 1.938L608 687c2.296 1.148 4.077 1.308 6.625 1.563l2.477.253L619 689v1h-13z"/><path fill="#DD9330" d="M257 679h8v1l-5 1-1 5c-1.562-1.25-1.562-1.25-3-3 .313-2.187.313-2.187 1-4"/><path fill="#D3D1CD" d="m842 660 2 3c-4.833.083-9.237-.047-14-1v-1c4.058-.984 7.828-1.315 12-1"/><path fill="#D7D5D0" d="M357 534c1.671 2.962 2.327 5.37 2.625 8.75l.227 2.422L360 547l-1-3h-2c-.75-3.663-1.238-6.424 0-10"/><path fill="#E9E8E3" d="m492 503 2 1c.813 2.875.813 2.875 1 6-1.437 1.875-1.437 1.875-3 3l-1-1c.09-1.525.245-3.047.438-4.562l.308-2.504z"/><path fill="#E6E5DF" d="M452 494h1c2.277 8.036 2.277 8.036 1 12l-2-1c-1.274-7.179-1.274-7.179 0-11"/><path fill="#33465A" d="m741 439 3 1v6h-6l1-2h2z"/><path fill="#07081D" d="M239 415h1l.438 3.188c.437 2.967.94 5.88 1.562 8.812-3-2-3-2-3.547-4.129l-.203-2.433-.234-2.442L238 416z"/><path fill="#05081B" d="m596 346 12 2v2c-4.989.293-7.962.059-12-3z"/><path fill="#090E13" d="m679.188 307.813 3.292.082L685 308c-3.266 1.913-5.994 2.357-9.75 2.625l-2.984.227L670 311c2.645-3.536 4.947-3.324 9.188-3.187"/><path fill="#D98F2F" d="m414.25 232.875 2.703.617L419 234c-2.433 1.535-3.671 2.03-6.578 1.758l-2.672-.633-2.703-.617L405 234c3.422-2.159 5.364-2.045 9.25-1.125"/><path fill="#06091B" d="m665 197 3.813.375 2.144.21C673 198 673 198 676 200c-4.52 1.456-7.516.27-12-1z"/><path fill="#F2A42F" d="M360 805c4.593 1.486 7.436 3.85 11 7l-1 2q-2.505-1.964-5-3.937l-2.812-2.215L360 806z"/><path fill="#EEEDE9" d="m500 722 3 1c-4.625 5.875-4.625 5.875-8 7 0-3 0-3 2.5-5.687z"/><path fill="#303130" d="m544 715 1 4c-2.712 2.603-3.891 2.995-7.75 3.188L534 722v-1h6v-2h2l1-3z"/><path fill="#1B1B1B" d="M295 636c1.417 4.25.193 6.719-1 11l-2-1c.75-7.75.75-7.75 3-10"/><path fill="#F3F2ED" d="M708 622c2.952 2.952 3.087 5.955 4 10l-2 1c-3.077-6.4-3.077-6.4-2.687-9.437z"/><path fill="#EBEBE9" d="M369 595h1l2 13-3-1a431 431 0 0 1-.562-4.312l-.317-2.426C368 598 368 598 369 595"/><path fill="#E3E1DC" d="M364 570h1a311 311 0 0 1 1.063 4.25l.597 2.39c.355 2.464.109 4.016-.66 6.36-2.839-2.839-2.9-6.133-3-10z"/><path fill="#F7F6F2" d="m680 558 3 1c.8 1.777.8 1.777 1.313 3.938l.55 2.152L685 567l-2 2a480 480 0 0 1-1.5-3.812l-.844-2.145C680 561 680 561 680 558"/><path fill="#1E2123" d="M893 553c.293 2.164.293 2.164.188 4.625l-.083 2.477L893 562h-1v-8l-11-1v-1c1.435-.223 2.873-.428 4.313-.625l2.425-.352C890 551 890 551 893 553"/><path fill="#08090B" d="M781 479h2c-1.37 3.995-3.257 6.8-6 10l-1-3c.926-1.824.926-1.824 2.313-3.687l1.363-1.887z"/><path fill="#080D12" d="m741 423 2 1c1.172 3.984 1.08 7.874 1 12-3.011-4.517-3.1-7.664-3-13"/><path fill="#DF922F" d="m244 420 3 1-3 8-5-1 2-2 2 1z"/><path fill="#E28F31" d="M810 368h1c.081 1.437.14 2.874.188 4.313l.105 2.425c-.355 2.74-1.187 3.554-3.293 5.262a365 365 0 0 1-.125-4.875l-.07-2.742C808 370 808 370 810 368"/><path fill="#30435A" d="M578 318c.625 1.75.625 1.75 1 4l-2 4c-.471 2.664-.73 5.305-1 8h-1c-.327-6.13-.394-10.627 3-16"/><path fill="#F3A42F" d="M728 283c3.445 4.384 5.316 7.308 5 13l-2-3-1.625-2.375c-1.486-2.837-1.645-4.475-1.375-7.625"/><path fill="#F5A630" d="m707 275 3 2v2h2l2 7c-2.648-2.578-4.944-4.916-7-8z"/><path fill="#E5992F" d="m319 245 1 4c-2.312 2.063-2.312 2.063-5 4l-3-1z"/><path fill="#EB9B31" d="m711 209 10 3-1 2c-3.806-.672-7.352-1.727-11-3z"/><path fill="#08091D" d="M688 204c4.056.468 7.466.88 11 3l-1 2-10-3z"/><path fill="#E89B2E" d="M570 841v3l-8 4-2-2z"/><path fill="#EB9A2F" d="m658 783 2 1c-1.875 3.875-1.875 3.875-3 5-1.666.04-3.334.043-5 0z"/><path fill="#E2DFD8" d="m490 718 1 4c-3.122.967-5.52.99-8.75.563l-2.422-.31L478 722v-1l2.117-.148 2.758-.227c.905-.07 1.81-.14 2.742-.21 2.562-.21 2.562-.21 4.383-2.415"/><path fill="#0A091C" d="M731 697c1 3 1 3 .074 5.043l-1.386 2.144-1.364 2.168L727 708h-2c1.45-4.11 3.511-7.433 6-11"/><path fill="#C2C0BD" d="m540.188 677.938 2.73.027L545 678v1h-8v2l-6 1 1-3c3.015-1.005 5.042-1.103 8.188-1.062"/><path fill="#FEFDF9" d="M171 660v2q-2.156.079-4.312.125l-2.426.07C162 662 162 662 159 660c8.571-1.286 8.571-1.286 12 0"/><path fill="#050709" d="M782 644c3.438 1.528 6.19 3.502 9 6v2c-3.438-1.528-6.19-3.502-9-6z"/><path fill="#EAE8E5" d="M709 553c2.645 3.125 3.844 6.088 5 10l-2 1c-4.062-6.4-4.062-6.4-3.75-9.437z"/><path fill="#FAF9F5" d="m435 539 2 1c.414 2.285.414 2.285.625 5.063l.227 2.785L438 550h-2c-1.176-3.674-1.074-7.17-1-11"/><path fill="#08090B" d="M699 526h2c3 6.625 3 6.625 3 10h-2c-3-6.625-3-6.625-3-10"/><path fill="#FAFAF7" d="M354 525c2.266 2.266 2.945 3.842 3.098 7.043L357 538c-2.108-3.162-2.338-4.507-2.625-8.187l-.227-2.731z"/><path fill="#CECBC6" d="M187 502h14l2 4-1.61-.96c-2.935-1.277-5.452-1.457-8.64-1.665l-3.266-.227L187 503z"/><path fill="#080A0B" d="m796 471-10 6v-3c6.625-4.125 6.625-4.125 10-3"/><path fill="#0A0B0D" d="M162 467c-2.228 2.228-3.658 2.692-6.625 3.625-.817.26-1.635.52-2.477.79L151 472c.813-1.937.813-1.937 2-4 3.196-1.065 5.657-1.074 9-1"/><path fill="#FDAF30" d="M799 441h1v6h-14v-1l2.336-.078 3.039-.172 3.023-.14c2.755-.332 2.755-.332 3.954-2.657z"/><path fill="#25374A" d="M308 338c1.392 4.176-.177 6.135-2 10l-4-2 2-4v2c2.784-1.392 2.979-3.156 4-6"/><path fill="#0A0B1D" d="M302 263c1 3 1 3 .223 4.824L299 273l-2-1c1.25-3.46 2.675-6.147 5-9"/><path fill="#F39F30" d="m650.48 234.242 2.707.633 2.731.617L658 236c-2.341 1.45-3.58 2.043-6.36 1.758l-2.39-.633-2.422-.617L645 236c3-2 3-2 5.48-1.758"/><path fill="#09091C" d="m487 881 9 2-1 2-9-2z"/><path fill="#05081B" d="M537 856c-1 2-1 2-3.25 3.125-2.766.88-4.87 1.04-7.75.875 3.956-3.033 5.968-4.132 11-4"/><path fill="#EFA12F" d="M399 833c1.484.423 2.962.864 4.438 1.313l2.496.738L408 836l1 3c-3.941-.563-6.75-1.68-10-4z"/><path fill="#0A0A1B" d="M395 834c3.735.498 5.812.875 9 3l-1 3a809 809 0 0 1-4-2.437l-2.25-1.372L395 835z"/><path fill="#0A0B1F" d="M376 791c3.817 1.555 6.192 4.036 9 7-4.316 0-5.928-2.133-9-5z"/><path fill="#05081C" d="m710 762 2 1-6 8-2-1c1.736-3.058 3.385-5.634 6-8"/><path fill="#E29A2F" d="M321 742c3.489 1.163 4.1 2.14 6.188 5.063l1.605 2.222L330 751c-4.814-.833-6.18-3.162-9-7z"/><path fill="#F5A32E" d="M283 722c2.964 2.808 5.445 5.183 7 9h-3c-4-5.143-4-5.143-4-9"/><path fill="#E9E8E4" d="m525 717 3 1c-1.464 4.392-3.978 4.88-8 7 1.372-2.954 2.989-5.44 5-8"/><path fill="#FCFBF7" d="M383 709h1l-1 9-3 1c.507-3.719 1.116-6.735 3-10"/><path fill="#070809" d="M348 683h1a402 402 0 0 1-.375 4.938l-.21 2.777c-.138.754-.274 1.508-.415 2.285l-2 1q.21-2.47.438-4.937c.08-.917.162-1.834.246-2.778C347 684 347 684 348 683"/><path fill="#040508" d="M885 649c0 3 0 3-1.312 4.605L882 655.187l-1.687 1.606L879 658l-2-1c2.416-3.192 4.68-5.747 8-8"/><path fill="#D3D0C7" d="m300 578 13 1v1c-.922.09-.922.09-1.863.184l-2.45.254c-.8.08-1.6.162-2.425.246-2.423.269-2.423.269-5.262 1.316z"/><path fill="#06080A" d="M888 492c2.797 2.068 3.027 3.144 3.688 6.688L892 502l-2 1c-1.193-3.877-2-6.916-2-11"/><path fill="#06071C" d="m762 361 .938 1.938c.897 1.998.897 1.998 2.062 3.062.141 2.67.042 5.324 0 8-3.011-4.517-3.1-7.664-3-13"/><path fill="#304257" d="M591 307c0 2 0 2-1.46 3.508-.633.533-1.264 1.067-1.915 1.617l-1.898 1.633C584 315 584 315 582 315c1.526-3.885 4.502-8 9-8"/><path fill="#090F14" d="M667 296h1c.08 1.79.14 3.583.188 5.375l.105 3.023L668 307l-3 2z"/><path fill="#08081C" d="M775 240c3.719.507 6.735 1.116 10 3l-1 3-9-5z"/><path fill="#06081A" d="m373.188 236.813 2.73.082L378 237v1c-8.429 2.286-8.429 2.286-13 2 2.51-3.177 4.226-3.342 8.188-3.187"/><path fill="#EEA02E" d="m799 225 11 5v1c-3.64.428-5.046-.026-8.312-1.875L799 227z"/><path fill="#EA9C2F" d="M750 225c3.95.551 7.35 1.39 11 3-1.562 1.188-1.562 1.188-4 2-3.75-1.375-3.75-1.375-7-3z"/><path fill="#04071A" d="M376 218v2c-3.473 1.158-6.36 1.069-10 1 3.318-3.063 5.552-3.303 10-3"/><path fill="#07091B" d="m640 190 9 1 1 3-10-2z"/><path fill="#DA8F30" d="m624 183 9 1 1 3c-7.75-.875-7.75-.875-10-2z"/><path fill="#E0912E" d="M377 170h-2v2c-5.415 1.23-5.415 1.23-8.375.063L365 171c8.036-2.277 8.036-2.277 12-1"/><path fill="#EA992E" d="m571 169 10 2-1 2-9-1z"/><path fill="#E3942D" d="M403 163v1c-1.412.392-2.83.763-4.25 1.125l-2.39.633c-2.78.285-4.019-.308-6.36-1.758 8.429-2.429 8.429-2.429 13-1"/><path fill="#E0942F" d="M417 159c-3.216 2.144-5.19 2.676-9 3l-2-2c7.429-2.429 7.429-2.429 11-1"/><path fill="#08091B" d="M417 156c-1 2-1 2-2.777 2.703l-2.16.547-2.153.578L408 160l-2-2c3.823-1.423 6.913-2.24 11-2"/><path fill="#06071A" d="M522 137c1.418.115 2.834.243 4.25.375.789.07 1.578.14 2.39.21 2.446.43 4.208 1.201 6.36 2.415-8.193.473-8.193.473-11.562-1.5z"/><path fill="#E19530" d="m483 878 5.957.586C491 879 491 879 494 881c-2.17.955-3.563 1.144-5.824.398-1.744-.757-3.462-1.574-5.176-2.398z"/><path fill="#09091D" d="M298 746c3.243 2.39 5.509 4.205 7 8h-3c-4-4.229-4-4.229-4-8"/><path fill="#E7E6E4" d="M368 694c2.296 3.445 2.54 5.938 3 10h-2c-2.125-6.625-2.125-6.625-1-10"/><path fill="#F7A42F" d="M738 688h3l-2 5h-2l-2 4c.557-3.344 1.352-6.033 3-9"/><path fill="#05071B" d="M742 677c1 3 1 3 .223 4.824L739 687h-2c1.335-3.594 2.96-6.755 5-10"/><path fill="#FDFDFC" d="M376 637c2 3 2 3 2 7h-10v-1l7-1z"/><path fill="#1A1B1B" d="M850 614h1c.313 2.688.313 2.688 0 6-2.5 2.875-2.5 2.875-5 5l-1-3 1.938-1.187c2.5-2.198 2.712-3.57 3.062-6.813"/><path fill="#FCFBF7" d="M337 615c2.566 3.85 2.551 6.435 3 11-1.5-1-1.5-1-3-3-.273-2.718-.135-5.257 0-8"/><path fill="#E7E6E0" d="M307 548h2l-2 13c-2.135-4.27-2.175-4.728-1-9l.563-2.312z"/><path fill="#F1EFEB" d="m486 536-1 8h-3c.256-2.343.593-4.678 1-7 2-1 2-1 3-1"/><path fill="#FBFAF5" d="M144 478c-1.443 3.366-3.333 5.51-6 8 .376-2.782.673-4.588 2.438-6.812C142 478 142 478 144 478"/><path fill="#E8E7E5" d="M862 471c4.22.48 6.797 1.166 10 4-2 1-2 1-3.945.441l-2.18-.878-2.195-.872L862 473z"/><path fill="#F8A42E" d="m266 392 2 1q-.423 2.221-.875 4.438l-.492 2.496L266 402l-2 1q.212-2.188.438-4.375c.08-.812.162-1.624.246-2.46C265 394 265 394 266 392"/><path fill="#0B1016" d="M596 385c3.161 1.37 3.993 1.99 6 5 .125 2.688.125 2.688 0 5l-3-4-1.687-2.125C596 387 596 387 596 385"/><path fill="#F9A42F" d="m750 378 2 1c.414 2.285.414 2.285.625 5.063l.227 2.785L753 389c-2.398-2.398-2.343-3.333-2.625-6.625l-.227-2.477z"/><path fill="#0A1016" d="M444 376c6.75.875 6.75.875 9 2v2c-5.538-.615-5.538-.615-7.875-2.562z"/><path fill="#0B0F15" d="M583 347q1.688 1.436 3.375 2.875l1.898 1.617A76 76 0 0 1 592 355c-3.588-.299-4.782-.77-7.312-3.437C583 349 583 349 583 347"/><path fill="#F6A831" d="M666 341c2.95 1.37 5.525 2.878 8 5v2c-3.337-1.173-5.774-2.189-8-5z"/><path fill="#EFA330" d="M647 285c3.367 1.393 4.986 2.979 7 6l-2 4-1.375-3.437c-1.196-3.61-1.196-3.61-3.625-4.563z"/><path fill="#030819" d="M639.188 279.875 643 280c-2.952 2.952-5.955 3.087-10 4l-1-2c3.089-2.06 3.71-2.239 7.188-2.125"/><path fill="#080C10" d="M598 259h2c-1.152 2.468-2.048 4.048-4 6-3.625.125-3.625.125-7 0 2.053-1.026 4.1-2.046 6.188-3 1.984-.871 1.984-.871 2.812-3"/><path fill="#DF952F" d="M688 201c6.75 1.625 6.75 1.625 9 5l-11-3z"/><path fill="#FBA82E" d="M681 178q2.188.465 4.375.938l2.46.527C690 180 690 180 692 181v2c-3.916-.783-7.364-2.392-11-4z"/><path fill="#E09430" d="M346 178c-3.216 2.144-5.19 2.676-9 3l-2-2c7.429-2.429 7.429-2.429 11-1"/><path fill="#231B23" d="M446 174h-2v2h-10c7.13-3.565 7.13-3.565 12-2"/><path fill="#0A0A1D" d="M605 822c-5.415 4.062-5.415 4.062-8.375 3.75L595 825c6.625-4.125 6.625-4.125 10-3"/><path fill="#0B0A1F" d="m386 799 9 6-3 1c-3.187-2.312-3.187-2.312-6-5z"/><path fill="#04061C" d="M346 797c3.871.574 6.082 2.487 9 5l-1 2a962 962 0 0 1-4-2.937l-2.25-1.653L346 798z"/><path fill="#080A1A" d="m674 797 3 1-7 6-1-3c2.313-2.062 2.313-2.062 5-4"/><path fill="#E6952F" d="m676 767 2 1c-1.37 3.161-1.99 3.993-5 6l-1-3z"/><path fill="#09091E" d="M307 758c3.795 1.491 5.61 3.757 8 7h-3c-5-5.465-5-5.465-5-7"/><path fill="#202223" d="M489.188 711.938 491 713v5l-3-1v-4l-4-1c3-1 3-1 5.188-.062"/><path fill="#F9F9F4" d="M339 700c2.29 3.435 2.178 4.985 2 9h-2c-.879-6.152-.879-6.152-1-8z"/><path fill="#E5E5E2" d="M145 655a85 85 0 0 1 7 2v3c-2.937-.812-2.937-.812-6-2z"/><path fill="#262626" d="M496 604h2l-1 8-3 1z"/><path fill="#F9F8F4" d="M448 589h2l2 8-2 1c-1.498-3.371-2-5.204-2-9"/><path fill="#D8D6D3" d="m442 571 3 1c.625 2.875.625 2.875 1 6l-2 2z"/><path fill="#FBFAF6" d="m446 481 3 1 1 8h-2z"/><path fill="#DEDDDA" d="M673 468c1.991 2.986 2.941 5.597 4 9l-3-1c-1.25-2.937-1.25-2.937-2-6z"/><path fill="#372625" d="m236 383-1 13h-1l-1-12c2-1 2-1 3-1"/><path fill="#07091C" d="M280 225c-3.125 2.645-6.088 3.844-10 5 1-3 1-3 2.75-4.187 2.55-.921 4.56-.962 7.25-.813"/><path fill="#E2922E" d="M431 155h-3v2l-5 2-3-3c7.429-2.429 7.429-2.429 11-1"/><path fill="#F2A22F" d="m687 783 2 1-7 7-1-3h2l1-3z"/><path fill="#04081A" d="M721 751c0 3 0 3-1.937 5.063L717 758l-1 2-2-1c1.911-3.536 3.626-5.79 7-8"/><path fill="#08091A" d="m715 721 1 3c-1.937 2.688-1.937 2.688-4 5l-3-1z"/><path fill="#FDFCF9" d="M546 714h1c-.25 3.375-.25 3.375-1 7l-4 2z"/><path fill="#29292A" d="m554 687 3 1-1.937 1.313c-2.33 1.6-2.33 1.6-3.063 4.687l-4-1z"/><path fill="#D4D3D0" d="m816 656-1 3-8-1c3.135-1.858 5.375-2.201 9-2"/><path fill="#090A0C" d="m793 652 8 3v2c-3.821-.53-6.062-1.497-9-4z"/><path fill="#EDEBE6" d="m799 652 7 2v3l-7-2z"/><path fill="#E6E5DF" d="M793 649c2.625.938 2.625.938 5 2v3c-2.915-1.074-4.778-1.778-7-4z"/><path fill="#202225" d="m340 644 1 2h7l-2 3c-2.5.375-2.5.375-5 0l-2-3z"/><path fill="#F5F3F0" d="M455 611c2.68 4.019 2.156 6.242 2 11-1.882-3.263-2.585-6.263-3-10z"/><path fill="#05070A" d="M259 604h2c.188 3.375.188 3.375 0 7l-3 2z"/><path fill="#E0E0DC" d="m445 582 3 1c1.188 3.063 1.188 3.063 2 6h-2l-1 2z"/><path fill="#09090B" d="M503 582h1c.188 3.375.188 3.375 0 7l-3 2c.875-7.875.875-7.875 2-9"/><path fill="#FBFAF8" d="M311 527h1c.125 6.625.125 6.625-1 10h-2c.458-3.47.891-6.674 2-10"/><path fill="#F9F7F2" d="M490 512h2l-1 9-2-1z"/><path fill="#E6E5E2" d="M455 506h1l2 10-2 1c-2.125-7.625-2.125-7.625-1-11"/><path fill="#E1E1DD" d="m798 470 2 1c-1.125 1.5-1.125 1.5-3 3-3.187.188-3.187.188-6 0 2.386-1.892 4.072-3.024 7-4"/><path fill="#05070A" d="M806 467c-3.44 2.294-4.723 3-9 3v-2c6.75-2.125 6.75-2.125 9-1"/><path fill="#080A1C" d="M732 287c3 2 3 2 3.688 5.125L736 295h-2c-1.765-3.088-2-4.233-2-8"/><path fill="#EB9A30" d="M291 218c-2.986 1.991-5.597 2.941-9 4v-3c3.073-.91 5.801-1.089 9-1"/><path fill="#05071C" d="m675 766 2 1-7 6v-3h2l1-3z"/><path fill="#E29630" d="m711 729 1 3c-1.937 2.688-1.937 2.688-4 5l-3-1z"/><path fill="#DFDEDA" d="M380 722h1l-1 9c-2-3-2-3-1.687-5.625C379 723 379 723 380 722"/><path fill="#FBFAF8" d="m364 719 2 1c.73 2.314 1.401 4.648 2 7h-3z"/><path fill="#0A0B0C" d="M357 701c2.152 3.228 2.2 4.284 2 8l-3-1z"/><path fill="#0C0D0F" d="m323 690 3 2c.188 3.125.188 3.125 0 6-1.5-1.187-1.5-1.187-3-3-.187-2.687-.187-2.687 0-5"/><path fill="#E9E7E1" d="M443 681h1v9h-4v-2h2z"/><path fill="#080A0D" d="m227 652-8 4v-3c3.406-2.068 3.812-2.047 8-1"/><path fill="#1A1D20" d="M574 640h9l-3 1v2c-2.437-.375-2.437-.375-5-1z"/><path fill="#1E2022" d="m889 636 3 4-3 3c-.934-3.01-1.044-3.867 0-7"/><path fill="#E1DEDA" d="M266 582c2 2 2 2 2.125 4.625L268 589l-3 1z"/><path fill="#040507" d="M270 553h1c.125 7.75.125 7.75-1 10h-2z"/><path fill="#08090A" d="M309 554c1.033 2.788 1.045 3.868.063 6.75L308 563h-1c-.125-3.375-.125-3.375 0-7z"/><path fill="#E2E0DB" d="M834 549h11v1l-5.957.586c-2.343.34-2.343.34-5.043 2.414z"/><path fill="#040508" d="M480 543h1c-.586 6.152-.586 6.152-1 8l-2 1c.875-7.875.875-7.875 2-9"/><path fill="#FBFAF6" d="M462 538h2l1 8h-2z"/><path fill="#E2E1DC" d="M461 530c2.565 2.565 2.54 4.477 3 8h-3c-1.125-5.75-1.125-5.75 0-8"/><path fill="#F4F4EF" d="M790 474c2.25.25 2.25.25 4 1h-2v2l-6 1c1.75-2.062 1.75-2.062 4-4"/><path fill="#D3D2CF" d="m205 466 9 1c-3.228 2.152-4.284 2.2-8 2z"/><path fill="#090E13" d="M365 366h1l.148 1.863.227 2.45c.07.8.14 1.6.21 2.425.31 2.534.31 2.534 2.415 5.262l-4-1z"/><path fill="#F6A72F" d="M699 265h2c2.188 2.313 2.188 2.313 4 5l-1 3c-5-5.75-5-5.75-5-8"/><path fill="#304357" d="m416 259 6 5-1 2c-2.5-1.25-2.5-1.25-5-3z"/><path fill="#E3972F" d="m230 221 3 1c-2.36 2.097-3.546 2.97-6.75 3.188L224 225c1.964-1.506 3.783-2.891 6-4"/><path fill="#090A1E" d="m703 209 9 2-1 2c-4.08-.551-4.913-.913-8-4"/><path fill="#DB8F2F" d="M350.313 196.875 352 198l-8 2-1-2c4.43-2.215 4.43-2.215 7.313-1.125"/><path fill="#07091D" d="M616 158c3.735.498 5.812.875 9 3-6.75.125-6.75.125-9-1z"/></svg>